<svg width="90" height="37" viewBox="0 0 90 37" fill="none" xmlns="http://www.w3.org/2000/svg">
<path fill-rule="evenodd" clip-rule="evenodd" d="M19.8389 12.5519C19.8389 10.2353 18.3349 8.26966 16.2491 7.60778C15.2985 7.30822 14.2968 7.10281 13.2695 7.02293C12.2989 6.9459 11.3142 6.90596 10.3238 6.90596H0V27.7551H6.31123V19.5958C7.26472 19.5958 8.20971 19.5644 9.14902 19.5016L13.5249 27.7551H20.7385L15.4489 18.4061C15.7043 18.312 15.954 18.215 16.2009 18.1065C18.3406 17.1822 19.8361 15.0425 19.8361 12.5519H19.8389ZM13.5277 12.6232C13.5277 13.7473 12.9545 14.7372 12.0861 15.3135C11.3086 15.8299 10.4345 16.1922 9.48672 16.3663C8.4566 16.5546 7.39811 16.6516 6.31407 16.6516V9.87586H9.83575C10.3806 9.87586 10.9169 9.93862 11.4334 10.0413C12.631 10.2838 13.5305 11.348 13.5305 12.6232H13.5277Z" fill="#E20013"/>
<path fill-rule="evenodd" clip-rule="evenodd" d="M38.9696 27.0932V18.5001C38.9696 17.9267 38.9186 17.3675 38.8107 16.8255C38.4276 14.8855 36.9718 13.3335 35.0904 12.8399C33.8588 12.5176 32.5818 12.3464 31.2594 12.3464C28.6344 12.3464 26.0833 12.6602 23.6399 13.2536L24.6076 15.9725C26.2876 15.516 28.0584 15.2735 29.8831 15.2735C30.5585 15.2735 31.2197 15.342 31.8553 15.4732C32.5137 15.6101 33.0103 16.195 33.0103 16.8968V18.2491C31.7957 18.2491 30.5925 18.289 29.3978 18.3689C28.1492 18.4516 26.9374 18.6713 25.7796 19.0108C25.2007 19.182 24.6388 19.4017 24.1053 19.6641C22.7517 20.3289 21.8351 21.7211 21.8351 23.3301C21.8351 24.9392 22.851 26.4598 24.2983 27.0817C25.4703 27.5896 26.7416 27.9262 28.0697 28.0603C29.0317 28.1602 30.0249 28.2115 31.0182 28.2115C33.7765 28.2115 36.4412 27.8207 38.9668 27.0932H38.9696ZM33.0103 20.4573V25.5897C32.3463 25.6752 31.6737 25.718 30.9898 25.718C30.2009 25.718 29.4347 25.5754 28.7423 25.3158C27.9307 25.0077 27.3518 24.226 27.3518 23.3016C27.3518 22.2774 27.9647 21.3987 28.8586 21.0278C29.3609 20.8196 29.8972 20.6741 30.4563 20.6085C31.2934 20.5086 32.1448 20.4573 33.0103 20.4573Z" fill="#E20013"/>
<path fill-rule="evenodd" clip-rule="evenodd" d="M59.833 14.8912V20.2775H59.8359V28.2857C59.8359 28.9875 59.7508 29.6751 59.5918 30.3398C59.03 32.6906 56.9726 34.6106 54.2284 35.4151C52.4605 35.9344 50.5535 36.2197 48.5614 36.2197C46.0244 36.2197 43.5754 35.9001 41.2796 35.3124L42.5141 32.5251C44.1004 32.8418 45.7349 33.0101 47.4319 33.0101C49.8838 33.0101 52.2022 32.1314 53.204 30.8448C53.5587 30.3883 53.7573 29.8149 53.8453 29.0303C53.885 28.6851 53.9021 28.2971 53.9021 27.8634C52.7585 28.0917 51.5751 28.2115 50.3634 28.2115C48.8451 28.2115 47.3723 28.0232 45.962 27.6694C43.4903 27.0504 41.5889 25.0333 41.1065 22.5085C40.9703 21.7867 40.8965 21.0421 40.8965 20.2804C40.8965 19.5186 40.9703 18.774 41.1065 18.0522C41.5889 15.5274 43.4931 13.5104 45.962 12.8913C47.3695 12.5375 48.8451 12.3464 50.3634 12.3464C53.0337 12.3464 57.7359 13.2936 59.833 14.8912ZM53.6098 23.313C53.763 22.3259 53.8453 21.3103 53.8453 20.2775C53.8453 19.2448 53.763 18.232 53.6098 17.242C53.4537 16.2235 52.7187 15.4047 51.7397 15.1365C51.2998 15.0196 50.8373 14.954 50.3634 14.954C49.8895 14.954 49.4269 15.0196 48.9899 15.1365C48.008 15.4047 47.2759 16.2264 47.1169 17.242C46.9637 18.232 46.8814 19.2448 46.8814 20.2775C46.8814 21.3103 46.9637 22.3231 47.1169 23.313C47.2759 24.3315 48.0108 25.1503 48.9899 25.4185C49.4269 25.5355 49.8866 25.6011 50.3634 25.6011C50.8401 25.6011 51.3027 25.5355 51.7397 25.4185C52.7187 25.1503 53.4509 24.3287 53.6098 23.313Z" fill="#E20013"/>
<path fill-rule="evenodd" clip-rule="evenodd" d="M89.7641 20.2776C89.7641 19.5158 89.6903 18.7712 89.5541 18.0494C89.0717 15.5217 87.1704 13.5076 84.6986 12.8885C83.2883 12.5347 81.8155 12.3436 80.2944 12.3436C78.7733 12.3436 77.3005 12.5347 75.893 12.8885C73.4241 13.5076 71.52 15.5246 71.0376 18.0494C70.9014 18.7712 70.8276 19.5158 70.8276 20.2776C70.8276 21.0393 70.9014 21.7839 71.0376 22.5057C71.52 25.0305 73.4213 27.0476 75.893 27.6666C77.3034 28.0204 78.7762 28.2087 80.2944 28.2087C81.8126 28.2087 83.2883 28.0176 84.6986 27.6666C87.1675 27.0476 89.0717 25.0305 89.5541 22.5057C89.6903 21.7839 89.7641 21.0393 89.7641 20.2776ZM83.7764 20.2776C83.7764 21.3103 83.6941 22.326 83.5408 23.3131C83.3819 24.3287 82.6498 25.1504 81.6707 25.4185C81.2337 25.5355 80.7712 25.6011 80.2944 25.6011C79.8176 25.6011 79.358 25.5355 78.9209 25.4185C77.9419 25.1504 77.2069 24.3316 77.048 23.3131C76.8947 22.3231 76.8125 21.3103 76.8125 20.2776C76.8125 19.2448 76.8947 18.232 77.048 17.2421C77.2069 16.2264 77.939 15.4048 78.9209 15.1366C79.358 15.0196 79.8205 14.954 80.2944 14.954C80.7683 14.954 81.2309 15.0196 81.6707 15.1366C82.6498 15.4048 83.3848 16.2236 83.5408 17.2421C83.6941 18.232 83.7764 19.2448 83.7764 20.2776Z" fill="#E20013"/>
<path d="M62.4419 8.92302H68.7531V27.7552H62.4419V8.92302Z" fill="#E20013"/>
<path fill-rule="evenodd" clip-rule="evenodd" d="M86.8842 7.06136V9.48835H87.2043V8.41417H87.5744C87.6578 8.41417 87.7144 8.41752 87.7511 8.42424C87.8011 8.43766 87.8512 8.4578 87.8978 8.48802C87.9478 8.51823 88.0012 8.57194 88.0612 8.64915C88.1212 8.72635 88.1979 8.83713 88.2912 8.98483L88.608 9.48835H89.0047L88.588 8.82706C88.5046 8.6995 88.418 8.59208 88.3246 8.5048C88.2812 8.46452 88.2146 8.42424 88.1312 8.38396C88.3612 8.35039 88.5313 8.27654 88.6413 8.15905C88.7514 8.0382 88.808 7.89386 88.808 7.72266C88.808 7.58838 88.7747 7.46754 88.708 7.35676C88.6413 7.24599 88.5513 7.16878 88.4413 7.12514C88.3279 7.08486 88.1645 7.06136 87.9512 7.06136H86.8842ZM87.8845 8.12884H87.201V7.32655H87.9612C88.1379 7.32655 88.2679 7.36348 88.3512 7.43733C88.4346 7.51118 88.4746 7.60517 88.4746 7.7193C88.4746 7.79987 88.4546 7.87036 88.4113 7.9375C88.3679 8.00463 88.3079 8.05163 88.2246 8.08184C88.1445 8.11205 88.0312 8.12884 87.8845 8.12884Z" fill="#E20013"/>
<path fill-rule="evenodd" clip-rule="evenodd" d="M87.8506 10.2496C88.8751 10.2496 89.7057 9.41381 89.7057 8.38276C89.7057 7.3517 88.8751 6.51586 87.8506 6.51586C86.8261 6.51586 85.9955 7.3517 85.9955 8.38276C85.9955 9.41381 86.8261 10.2496 87.8506 10.2496ZM87.8506 10.5458C89.0377 10.5458 90 9.5774 90 8.38276C90 7.18811 89.0377 6.21967 87.8506 6.21967C86.6635 6.21967 85.7012 7.18811 85.7012 8.38276C85.7012 9.5774 86.6635 10.5458 87.8506 10.5458Z" fill="#E20013"/>
</svg>
