<svg width="80" height="80" viewBox="0 0 80 80" fill="none" xmlns="http://www.w3.org/2000/svg">
<g clip-path="url(#clip0_3172_2118)">
<circle cx="40" cy="40" r="40" fill="#F2F1F0"/>
<path d="M24.7429 36.1984C24.7514 36.4235 24.8321 36.6061 24.985 36.7378C25.1379 36.8695 25.3461 36.9375 25.6052 36.9375C25.8643 36.9375 26.0682 36.8822 26.2168 36.7675C26.3655 36.6529 26.442 36.4999 26.442 36.3088C26.442 36.1389 26.3698 35.9945 26.2253 35.8713C26.0809 35.7481 25.7793 35.6079 25.3206 35.438C25.2781 35.4253 25.2102 35.3998 25.1125 35.3658C24.5773 35.1832 24.1822 34.992 23.9189 34.7924C23.6853 34.6225 23.5111 34.4059 23.3879 34.1468C23.2647 33.8877 23.2053 33.5988 23.2053 33.276C23.2053 32.6559 23.4177 32.1546 23.8467 31.7681C24.2757 31.3816 24.8364 31.1904 25.533 31.1904C26.3018 31.1904 26.8922 31.3731 27.3042 31.7341C27.7163 32.0952 27.9244 32.6176 27.9329 33.293L26.3698 33.2972C26.3655 33.0424 26.2891 32.847 26.1531 32.7068C26.013 32.5667 25.8176 32.4944 25.5712 32.4944C25.3333 32.4944 25.1464 32.5539 25.002 32.6686C24.8618 32.7833 24.7896 32.9404 24.7896 33.1358C24.7896 33.4162 25.1294 33.6795 25.8048 33.9259C25.9407 33.9769 26.0469 34.0151 26.1234 34.0448C26.1659 34.0618 26.2296 34.0831 26.3103 34.117C26.9304 34.3464 27.3637 34.5928 27.6143 34.8646C27.7715 35.0303 27.8862 35.2172 27.9626 35.4253C28.0391 35.6334 28.0773 35.8671 28.0773 36.1219C28.0773 36.7888 27.8479 37.324 27.3892 37.7275C26.9262 38.131 26.3145 38.3349 25.5457 38.3349C24.8236 38.3349 24.2502 38.1438 23.8254 37.7615C23.4007 37.3792 23.1755 36.8567 23.1543 36.1899L24.7429 36.1941V36.1984ZM30.0949 38.1947V32.7238H28.5488V31.3306H33.3656V32.7238H31.8195V38.1947H30.0949ZM34.1897 38.1947V31.3306H38.0338V32.6601H35.9142V34.0618H38.0338V35.3913H35.9142V36.8015H38.0338V38.1947H34.1897ZM39.478 38.1947V31.3306H43.3263V32.6601H41.2068V34.0618H43.3263V35.3913H41.2068V36.8015H43.3263V38.1947H39.478ZM44.7663 38.1947V31.3306H46.4908V36.8015H48.2239V38.1947H44.7663Z" fill="#191415" fill-opacity="0.8"/>
<path d="M55.9922 26.4119C52.8957 26.4119 50.7124 24.8063 48.321 23.0478C45.2244 20.7711 41.8008 18.2565 35.6927 18.2565C29.6101 18.2565 26.229 20.7541 23.1537 23.0265C20.7623 24.7935 18.5663 26.4161 15.3933 26.4161H14.5098L14.7137 27.2742C20.9662 53.5669 24.3133 56.3533 29.6483 60.7963C31.2582 62.1343 33.0549 63.6337 35.1745 66.0209L35.697 66.6071L36.2194 66.0209C38.339 63.6337 40.1358 62.1386 41.7456 60.7963C47.0806 56.3533 50.4278 53.5669 56.6803 27.2742L56.8842 26.4161H56.0007L55.9922 26.4119ZM47.4969 24.1691C49.8629 25.9064 52.0419 27.512 55.1172 27.7669C49.0983 52.8448 45.9041 55.508 40.8494 59.7217C39.333 60.9832 37.6551 62.3807 35.6927 64.5172C33.7303 62.3807 32.0525 60.9832 30.5361 59.7217C25.4772 55.508 22.2872 52.849 16.2683 27.7711C19.4115 27.5163 21.6076 25.8937 23.982 24.1394C26.8789 21.9986 30.0604 19.6497 35.6927 19.6497C41.3463 19.6497 44.5745 22.0241 47.4969 24.1691Z" fill="#191415" fill-opacity="0.8"/>
<path d="M64.7809 51.3582C63.787 51.3582 62.8312 51.9316 62.1006 52.8576C61.3913 53.7538 60.8773 54.9856 60.7329 56.3406C60.7032 56.604 60.6904 56.8588 60.6904 57.1009C60.6904 58.2308 60.9708 59.2417 61.4465 59.9936C61.9435 60.7794 62.6613 61.2891 63.5109 61.3783C63.6043 61.3868 63.6935 61.3953 63.7827 61.3953C64.7767 61.3953 65.7281 60.8218 66.463 59.8959C67.1723 59.0039 67.6863 57.7678 67.8307 56.4128C67.8604 56.1495 67.8732 55.8946 67.8732 55.6525C67.8732 54.5226 67.5928 53.5117 67.1171 52.7599C66.6201 51.9741 65.9023 51.4643 65.0527 51.3751C64.9593 51.3666 64.8701 51.3624 64.7809 51.3624V51.3582ZM62.6189 53.2696C63.2305 52.5008 63.9993 52.0208 64.7809 52.0208C64.8531 52.0208 64.9211 52.025 64.9805 52.0293C65.6134 52.0972 66.1614 52.4965 66.5522 53.1124C66.9642 53.7623 67.2063 54.6458 67.2063 55.6482C67.2063 55.8776 67.1936 56.1112 67.1681 56.3364C67.0364 57.5639 66.5777 58.6768 65.9405 59.4796C65.3289 60.2484 64.56 60.7241 63.7785 60.7241C63.7062 60.7241 63.6383 60.7199 63.5788 60.7156C62.9459 60.6477 62.398 60.2484 62.0072 59.6325C61.5952 58.9826 61.3531 58.0991 61.3531 57.0967C61.3531 56.8673 61.3658 56.6379 61.3913 56.4043C61.523 55.1768 61.9817 54.0639 62.6189 53.2653V53.2696Z" fill="#191415" fill-opacity="0.8"/>
<path d="M65.5323 51.4771L63.2344 50.7465C63.1834 50.9588 63.1154 51.1712 63.022 51.3751L65.3327 52.1099L65.5323 51.4771ZM59.4964 60.1677L62.9837 61.2678L63.1791 60.6349L59.798 59.5688C59.7173 59.7684 59.6154 59.968 59.4922 60.1677H59.4964Z" fill="#191415" fill-opacity="0.8"/>
<path d="M61.3658 54.9644L59.7305 54.4504C59.9259 54.7987 60.0958 55.2108 60.168 55.6695C60.2147 55.9668 60.2444 56.3151 60.2529 56.6974L61.026 56.9395L61.3701 54.9644H61.3658Z" fill="#191415" fill-opacity="0.8"/>
<path d="M61.1826 56.6422L60.2354 56.3448C60.2481 56.5657 60.2523 56.8036 60.2481 57.0457L60.9829 57.2751L61.1783 56.6422H61.1826Z" fill="#191415" fill-opacity="0.8"/>
<path d="M63.3664 51.8848L62.8439 51.7191C62.725 51.9357 62.5933 52.1226 62.4531 52.2925L63.1667 52.5177L63.3621 51.8848H63.3664Z" fill="#191415" fill-opacity="0.8"/>
<path d="M61.616 59.2544L60.0529 58.7617C59.9679 59.127 59.8533 59.4923 59.6621 59.8661L62.3424 60.7114L61.4801 59.675L61.6118 59.2502L61.616 59.2544Z" fill="#191415" fill-opacity="0.8"/>
<path d="M61.1403 43.6826C60.1463 43.6826 59.1906 44.256 58.46 45.182C57.7507 46.074 57.2367 47.3101 57.0923 48.6651C57.0626 48.9284 57.0498 49.1833 57.0498 49.4254C57.0498 50.5553 57.3301 51.5662 57.8059 52.318C58.3029 53.1038 59.0207 53.6135 59.8702 53.7027C59.9637 53.7112 60.0529 53.7197 60.1421 53.7197C61.136 53.7197 62.0917 53.1463 62.8223 52.2203C63.5317 51.3283 64.0457 50.0923 64.1901 48.7373C64.2198 48.4739 64.2326 48.2191 64.2326 47.977C64.2326 46.8471 63.9522 45.8362 63.4765 45.0843C62.9753 44.2985 62.2617 43.7888 61.4121 43.6996C61.3187 43.6911 61.2295 43.6826 61.1403 43.6826ZM58.9782 45.594C59.5899 44.8252 60.3587 44.3495 61.1403 44.3495C61.2125 44.3495 61.2805 44.3537 61.3399 44.358C61.9728 44.426 62.5208 44.8252 62.9115 45.4411C63.3236 46.091 63.5657 46.9745 63.5657 47.977C63.5657 48.2063 63.5529 48.4357 63.5275 48.6693C63.3958 49.8969 62.937 51.0098 62.2999 51.8083C61.6882 52.5771 60.9194 53.0571 60.1378 53.0571C60.0656 53.0571 59.9977 53.0529 59.9382 53.0486C59.3053 52.9806 58.7574 52.5814 58.3666 51.9655C57.9546 51.3156 57.7124 50.4321 57.7124 49.4296C57.7124 49.2003 57.7252 48.9709 57.7507 48.7373C57.8823 47.5097 58.3411 46.3968 58.9782 45.5983V45.594Z" fill="#191415" fill-opacity="0.8"/>
<path d="M61.8918 43.7974L52.6617 40.8623C52.6023 41.0704 52.5385 41.2828 52.4748 41.4994L61.6922 44.4303L61.8918 43.7974ZM49.1957 50.3897L59.3433 53.5882L59.5387 52.9553L49.4718 49.7823C49.3783 49.9862 49.2891 50.1901 49.1914 50.3897H49.1957Z" fill="#191415" fill-opacity="0.8"/>
<path d="M57.7256 47.2846L51.2649 45.25C51.0483 45.8702 50.8189 46.4946 50.5811 47.119L57.3858 49.264L57.7298 47.2889L57.7256 47.2846Z" fill="#191415" fill-opacity="0.8"/>
<path d="M57.5431 48.9625L50.6959 46.8047C50.6194 47.0128 50.5387 47.221 50.458 47.4248L57.3434 49.5954L57.5388 48.9625H57.5431Z" fill="#191415" fill-opacity="0.8"/>
<path d="M59.7301 44.2094L52.3604 41.886C52.2967 42.0941 52.233 42.3065 52.165 42.5231L59.5304 44.8423L59.7258 44.2094H59.7301Z" fill="#191415" fill-opacity="0.8"/>
<path d="M57.9763 51.579L49.8166 49.0092C49.6594 49.3702 49.5022 49.7312 49.3408 50.088L58.7069 53.0359L57.8446 51.9995L57.9763 51.5747V51.579Z" fill="#191415" fill-opacity="0.8"/>
<path d="M57.5338 52.7938C56.5399 52.7938 55.5842 53.3673 54.8536 54.2932C54.1442 55.1895 53.6303 56.4213 53.4858 57.7763C53.4561 58.0396 53.4434 58.2945 53.4434 58.5366C53.4434 59.6665 53.7237 60.6774 54.1994 61.4292C54.6964 62.215 55.4143 62.7247 56.2638 62.8139C56.3572 62.8224 56.4464 62.8309 56.5356 62.8309C57.5296 62.8309 58.4853 62.2575 59.2159 61.3315C59.9253 60.4395 60.4392 59.2035 60.5836 57.8485C60.6134 57.5851 60.6261 57.3303 60.6261 57.0882C60.6261 55.9583 60.3458 54.9474 59.87 54.1955C59.3688 53.4097 58.6552 52.9 57.8057 52.8108C57.7122 52.8023 57.623 52.7981 57.5338 52.7981V52.7938ZM55.3718 54.7052C55.9834 53.9364 56.7523 53.4564 57.5338 53.4564C57.606 53.4564 57.674 53.4607 57.7335 53.4649C58.3664 53.5329 58.9143 53.9322 59.3051 54.5438C59.7171 55.1937 59.9592 56.0772 59.9592 57.0797C59.9592 57.309 59.9465 57.5427 59.921 57.7678C59.7893 58.9996 59.3306 60.1082 58.6934 60.911C58.0818 61.6798 57.313 62.1556 56.5314 62.1556C56.4592 62.1556 56.3912 62.1513 56.3318 62.1471C55.6989 62.0791 55.1509 61.6798 54.7601 61.0639C54.3481 60.414 54.106 59.5305 54.106 58.5281C54.106 58.2987 54.1187 58.0694 54.1442 57.8357C54.2759 56.6082 54.7346 55.4953 55.3718 54.6968V54.7052Z" fill="#191415" fill-opacity="0.8"/>
<path d="M58.2858 52.9127L49.3445 50.071C49.251 50.2749 49.1576 50.4746 49.0641 50.6785L58.0861 53.5456L58.2858 52.9127ZM43.3128 58.7871L55.7414 62.6992L55.9368 62.0663L43.8523 58.2604C43.6696 58.4431 43.4912 58.6172 43.3086 58.7871H43.3128Z" fill="#191415" fill-opacity="0.8"/>
<path d="M54.1188 56.4001L47.123 54.1956C46.728 54.8072 46.3244 55.3721 45.9209 55.8989L53.7748 58.3752L54.1188 56.4001Z" fill="#191415" fill-opacity="0.8"/>
<path d="M53.936 58.0779L46.1331 55.6185C45.9887 55.8097 45.8485 55.9966 45.7041 56.1792L53.7406 58.7108L53.936 58.0779Z" fill="#191415" fill-opacity="0.8"/>
<path d="M56.1193 53.3205L48.8856 51.0396C48.7879 51.2434 48.6859 51.4431 48.584 51.6427L55.9197 53.9534L56.115 53.3205H56.1193Z" fill="#191415" fill-opacity="0.8"/>
<path d="M54.3655 60.6901L44.5024 57.5808C44.1966 57.9121 43.8908 58.2265 43.585 58.5195L55.0961 62.1427L54.2338 61.1063L54.3655 60.6816V60.6901Z" fill="#191415" fill-opacity="0.8"/>
</g>
<defs>
<clipPath id="clip0_3172_2118">
<rect width="80" height="80" fill="white"/>
</clipPath>
</defs>
</svg>
