<svg width="64" height="64" viewBox="0 0 64 64" fill="none" xmlns="http://www.w3.org/2000/svg">
<path d="M24 32.0002C24.7364 32.0002 25.3333 32.5971 25.3333 33.3335C25.3333 34.0699 24.7364 34.6668 24 34.6668C23.2636 34.6668 22.6667 34.0699 22.6667 33.3335C22.6667 32.5971 23.2636 32.0002 24 32.0002Z" fill="#191415" fill-opacity="0.4"/>
<path d="M32 32.0002C32.7364 32.0002 33.3333 32.5971 33.3333 33.3335C33.3333 34.0699 32.7364 34.6668 32 34.6668C31.2636 34.6668 30.6667 34.0699 30.6667 33.3335C30.6667 32.5971 31.2636 32.0002 32 32.0002Z" fill="#191415" fill-opacity="0.4"/>
<path d="M40 32.0002C40.7364 32.0002 41.3333 32.5971 41.3333 33.3335C41.3333 34.0699 40.7364 34.6668 40 34.6668C39.2636 34.6668 38.6667 34.0699 38.6667 33.3335C38.6667 32.5971 39.2636 32.0002 40 32.0002Z" fill="#191415" fill-opacity="0.4"/>
<path d="M24 24.0002C24.7364 24.0002 25.3333 24.5971 25.3333 25.3335C25.3333 26.0699 24.7364 26.6668 24 26.6668C23.2636 26.6668 22.6667 26.0699 22.6667 25.3335C22.6667 24.5971 23.2636 24.0002 24 24.0002Z" fill="#191415" fill-opacity="0.4"/>
<path d="M32 24.0002C32.7364 24.0002 33.3333 24.5971 33.3333 25.3335C33.3333 26.0699 32.7364 26.6668 32 26.6668C31.2636 26.6668 30.6667 26.0699 30.6667 25.3335C30.6667 24.5971 31.2636 24.0002 32 24.0002Z" fill="#191415" fill-opacity="0.4"/>
<path d="M40 24.0002C40.7364 24.0002 41.3333 24.5971 41.3333 25.3335C41.3333 26.0699 40.7364 26.6668 40 26.6668C39.2636 26.6668 38.6667 26.0699 38.6667 25.3335C38.6667 24.5971 39.2636 24.0002 40 24.0002Z" fill="#191415" fill-opacity="0.4"/>
<path d="M24 16.0002C24.7364 16.0002 25.3333 16.5971 25.3333 17.3335C25.3333 18.0699 24.7364 18.6668 24 18.6668C23.2636 18.6668 22.6667 18.0699 22.6667 17.3335C22.6667 16.5971 23.2636 16.0002 24 16.0002Z" fill="#191415" fill-opacity="0.4"/>
<path d="M32 16.0002C32.7364 16.0002 33.3333 16.5971 33.3333 17.3335C33.3333 18.0699 32.7364 18.6668 32 18.6668C31.2636 18.6668 30.6667 18.0699 30.6667 17.3335C30.6667 16.5971 31.2636 16.0002 32 16.0002Z" fill="#191415" fill-opacity="0.4"/>
<path d="M40 16.0002C40.7364 16.0002 41.3333 16.5971 41.3333 17.3335C41.3333 18.0699 40.7364 18.6668 40 18.6668C39.2636 18.6668 38.6667 18.0699 38.6667 17.3335C38.6667 16.5971 39.2636 16.0002 40 16.0002Z" fill="#191415" fill-opacity="0.4"/>
<path fill-rule="evenodd" clip-rule="evenodd" d="M32 1.3335C45.2548 1.3335 56 12.0787 56 25.3335C56 33.8766 51.5349 41.3748 44.8125 45.6278L46.6589 61.189C46.7136 61.6909 46.4803 62.181 46.056 62.4546C45.6315 62.7282 45.0882 62.7379 44.6536 62.4806L32 56.3218L19.3464 62.4806C18.9118 62.7379 18.3685 62.7282 17.944 62.4546C17.5197 62.181 17.2864 61.6908 17.3411 61.189L19.1888 45.6304C12.4653 41.3776 8 33.8775 8 25.3335C8 12.0787 18.7452 1.3335 32 1.3335ZM42.2826 47.0223C39.1656 48.5026 35.6801 49.3335 32 49.3335C28.3205 49.3335 24.8353 48.5035 21.7188 47.0236L20.2813 58.827L31.3203 53.6252L31.4818 53.5431C31.8678 53.3803 32.3131 53.4081 32.6797 53.6252L43.7174 58.827L42.2826 47.0223ZM32 4.00016C20.2179 4.00016 10.6667 13.5514 10.6667 25.3335C10.6667 37.1156 20.2179 46.6668 32 46.6668C43.7821 46.6668 53.3333 37.1156 53.3333 25.3335C53.3333 13.5514 43.7821 4.00016 32 4.00016Z" fill="#191415" fill-opacity="0.4"/>
</svg>
