<svg width="64" height="64" viewBox="0 0 64 64" fill="none" xmlns="http://www.w3.org/2000/svg">
<path d="M20 33.3333C20.7364 33.3333 21.3333 33.9302 21.3333 34.6666C21.3333 35.403 20.7364 35.9999 20 35.9999C19.2636 35.9999 18.6667 35.403 18.6667 34.6666C18.6667 33.9302 19.2636 33.3333 20 33.3333Z" fill="#191415" fill-opacity="0.4"/>
<path d="M28 33.3333C28.7364 33.3333 29.3333 33.9302 29.3333 34.6666C29.3333 35.403 28.7364 35.9999 28 35.9999C27.2636 35.9999 26.6667 35.403 26.6667 34.6666C26.6667 33.9302 27.2636 33.3333 28 33.3333Z" fill="#191415" fill-opacity="0.4"/>
<path d="M20 25.3333C20.7364 25.3333 21.3333 25.9302 21.3333 26.6666C21.3333 27.403 20.7364 27.9999 20 27.9999C19.2636 27.9999 18.6667 27.403 18.6667 26.6666C18.6667 25.9302 19.2636 25.3333 20 25.3333Z" fill="#191415" fill-opacity="0.4"/>
<path d="M28 25.3333C28.7364 25.3333 29.3333 25.9302 29.3333 26.6666C29.3333 27.403 28.7364 27.9999 28 27.9999C27.2636 27.9999 26.6667 27.403 26.6667 26.6666C26.6667 25.9302 27.2636 25.3333 28 25.3333Z" fill="#191415" fill-opacity="0.4"/>
<path d="M20 17.3333C20.7364 17.3333 21.3333 17.9302 21.3333 18.6666C21.3333 19.403 20.7364 19.9999 20 19.9999C19.2636 19.9999 18.6667 19.403 18.6667 18.6666C18.6667 17.9302 19.2636 17.3333 20 17.3333Z" fill="#191415" fill-opacity="0.4"/>
<path d="M28 17.3333C28.7364 17.3333 29.3333 17.9302 29.3333 18.6666C29.3333 19.403 28.7364 19.9999 28 19.9999C27.2636 19.9999 26.6667 19.403 26.6667 18.6666C26.6667 17.9302 27.2636 17.3333 28 17.3333Z" fill="#191415" fill-opacity="0.4"/>
<path d="M36 25.3333C36.7364 25.3333 37.3333 25.9302 37.3333 26.6666C37.3333 27.403 36.7364 27.9999 36 27.9999C35.2636 27.9999 34.6667 27.403 34.6667 26.6666C34.6667 25.9302 35.2636 25.3333 36 25.3333Z" fill="#191415" fill-opacity="0.4"/>
<path d="M44 25.3333C44.7364 25.3333 45.3333 25.9302 45.3333 26.6666C45.3333 27.403 44.7364 27.9999 44 27.9999C43.2636 27.9999 42.6667 27.403 42.6667 26.6666C42.6667 25.9302 43.2636 25.3333 44 25.3333Z" fill="#191415" fill-opacity="0.4"/>
<path d="M36 17.3333C36.7364 17.3333 37.3333 17.9302 37.3333 18.6666C37.3333 19.403 36.7364 19.9999 36 19.9999C35.2636 19.9999 34.6667 19.403 34.6667 18.6666C34.6667 17.9302 35.2636 17.3333 36 17.3333Z" fill="#191415" fill-opacity="0.4"/>
<path d="M44 17.3333C44.7364 17.3333 45.3333 17.9302 45.3333 18.6666C45.3333 19.403 44.7364 19.9999 44 19.9999C43.2636 19.9999 42.6667 19.403 42.6667 18.6666C42.6667 17.9302 43.2636 17.3333 44 17.3333Z" fill="#191415" fill-opacity="0.4"/>
<path d="M57.3333 41.7773V11.8515C57.3333 10.83 56.928 9.84982 56.2057 9.12752C55.4834 8.40523 54.5032 8 53.4818 7.99992H10.5182C9.49676 8 8.51656 8.40523 7.79427 9.12752C7.07198 9.84982 6.66674 10.83 6.66667 11.8515V53.3332L15.151 46.4101C15.651 45.9102 16.3295 45.6303 17.0365 45.6301H53.4818V48.2968H17.0365L4 58.6666V11.8515C4.00008 10.1228 4.68646 8.4645 5.90885 7.24211C7.13125 6.01971 8.78952 5.33333 10.5182 5.33325H53.4818L53.8047 5.34106C55.4158 5.42098 56.9451 6.09604 58.0911 7.24211C59.3135 8.4645 59.9999 10.1228 60 11.8515V41.7773C60 43.5059 59.3134 45.1642 58.0911 46.3866L57.8568 46.6093C56.7407 47.6201 55.3086 48.2131 53.8047 48.2877L53.4818 48.2968V45.6301C54.5032 45.63 55.4834 45.2235 56.2057 44.5012C56.9279 43.7789 57.3333 42.7987 57.3333 41.7773Z" fill="#191415" fill-opacity="0.4"/>
</svg>
