<svg width="80" height="80" viewBox="0 0 80 80" fill="none" xmlns="http://www.w3.org/2000/svg">
<g clip-path="url(#clip0_3172_2053)">
<circle cx="40" cy="40" r="40" fill="#F2F1F0"/>
<path fill-rule="evenodd" clip-rule="evenodd" d="M29.24 27.8252L26.3725 24.2912L23.505 27.8252L21.02 30.8871H26.3725H31.725L29.24 27.8252ZM41.0493 62.9038L56.8259 37.9715L55.0103 37.2991V37.2976C54.4679 37.0988 54.1093 36.6954 53.9344 36.2292C53.8582 36.0274 53.8209 35.8122 53.8194 35.6001C53.8179 35.3879 53.8552 35.1742 53.927 34.9739C54.0973 34.5003 54.4574 34.0908 55.0043 33.8876L55.0103 33.8816L55.4198 33.7307C55.1747 33.514 54.973 33.2286 54.8445 32.8775L54.843 32.8789L54.6128 32.2588H47.385L41.0493 62.9053V62.9038ZM45.9655 32.2573H39.9928H34.0352L39.9973 61.1345L45.967 32.2573H45.9655ZM32.6156 32.2573H19.5586L25.5133 41.6729L25.5402 41.6011H25.5417C25.7419 41.0587 26.1439 40.6986 26.6101 40.5252C26.8118 40.4505 27.0285 40.4117 27.2392 40.4117C27.4558 40.4102 27.6725 40.4475 27.8698 40.5193C28.3405 40.6896 28.7469 41.0497 28.9501 41.5952L28.9561 41.6011L29.8811 44.1011H29.8826C29.9199 44.2027 29.9782 44.2939 30.0514 44.3671V44.3731C30.1216 44.4433 30.2098 44.5001 30.3099 44.5374L32.8173 45.4624L32.8278 45.4684C33.3657 45.6701 33.7214 46.0751 33.8947 46.5413H33.8962C33.9679 46.74 34.0053 46.9567 34.0053 47.1808C34.0038 47.396 33.9664 47.6112 33.8902 47.8129V47.8189C33.7169 48.2806 33.3582 48.6796 32.8173 48.8798V48.8813L30.5923 49.7047L38.9424 62.9053L32.6156 32.2603V32.2573ZM28.8216 46.8999L29.0801 47.3078C29.1668 47.2675 29.2565 47.2301 29.3476 47.1958L29.3536 47.1898L29.4089 47.1689L29.3536 47.1495C29.1683 47.0807 28.992 46.997 28.8216 46.8999ZM33.1864 30.4806L36.0539 26.9466L38.5404 23.8833H33.1864H27.8339L30.3189 26.9466L33.1864 30.4806ZM40.0003 24.2897L37.1328 27.8238L34.6478 30.8856H40.0003H45.3528L42.8678 27.8238L40.0003 24.2897ZM46.8142 30.4806L49.6817 26.9466L49.8864 26.6956L47.9394 25.9753L47.9334 25.9693C47.3088 25.7362 46.8934 25.27 46.6947 24.7321H46.6932C46.6095 24.5034 46.5677 24.2539 46.5677 24.0013C46.5677 23.9625 46.5691 23.9236 46.5706 23.8833H41.4602L43.9452 26.9466L46.8127 30.4806H46.8142ZM51.7393 24.4108L52.1667 23.8833H50.9653L50.6411 24.0043L51.7393 24.4108ZM56.4956 27.8238L53.6281 24.2897L53.1156 24.9218C53.7491 25.1684 54.3185 25.545 54.7936 26.0172C55.2912 26.5148 55.6812 27.1155 55.9278 27.7849L56.8124 30.1728L57.31 28.8264L56.4956 27.8238ZM51.2627 27.2036L50.7606 27.8238L48.2756 30.8856H53.6281H54.1063L53.3128 28.7427C53.2067 28.4543 53.0409 28.1958 52.8317 27.9881C52.6195 27.7774 52.361 27.6086 52.0711 27.504L51.2627 27.2051V27.2036Z" fill="#191415" fill-opacity="0.8"/>
<path d="M29.8317 48.4988L32.3391 47.5708C32.7097 47.4348 32.7097 46.9073 32.3391 46.7669L29.8317 45.8419C29.2504 45.6267 28.7932 45.168 28.5765 44.5837L27.65 42.0793C27.5111 41.7042 26.9851 41.7042 26.8491 42.0793L25.9212 44.5837C25.7045 45.168 25.2472 45.6252 24.663 45.8419L22.1601 46.7669C21.7865 46.9058 21.7865 47.4348 22.1601 47.5708L24.663 48.4988C25.2472 48.7154 25.7045 49.1727 25.9212 49.754L26.8491 52.2614C26.9851 52.632 27.5111 52.632 27.65 52.2614L28.5765 49.754C28.7932 49.1727 29.2504 48.7154 29.8317 48.4988Z" fill="#191415" fill-opacity="0.8"/>
<path d="M48.4178 24.6678L52.551 26.1979C53.5103 26.5506 54.2664 27.3067 54.6205 28.266L56.1507 32.3993C56.3763 33.0164 57.2475 33.0164 57.4746 32.3993L59.0047 28.266C59.3604 27.3067 60.115 26.5491 61.0773 26.1979L65.2075 24.6678C65.8231 24.4392 65.8231 23.5695 65.2075 23.3453L61.0773 21.8137C60.115 21.458 59.3619 20.7049 59.0047 19.7456L57.4746 15.6124C57.249 14.9967 56.3763 14.9967 56.1507 15.6124L54.6205 19.7456C54.2679 20.7034 53.5103 21.458 52.551 21.8137L48.4178 23.3453C47.8021 23.5695 47.8021 24.4392 48.4178 24.6678Z" fill="#191415" fill-opacity="0.8"/>
<path d="M63.1632 36.9195L65.6706 35.9916C66.0412 35.8556 66.0412 35.3281 65.6706 35.1876L63.1632 34.2627C62.5819 34.0475 62.1247 33.5887 61.908 33.0045L60.9815 30.5C60.8426 30.1265 60.3166 30.1265 60.1806 30.5L59.2542 33.0045C59.0375 33.5887 58.5802 34.046 57.996 34.2627L55.4931 35.1876C55.1195 35.3266 55.1195 35.8556 55.4931 35.9916L57.996 36.9195C58.5802 37.1362 59.0375 37.5934 59.2542 38.1747L60.1806 40.6821C60.3181 41.0527 60.8426 41.0527 60.9815 40.6821L61.908 38.1747C62.1247 37.5934 62.5819 37.1362 63.1632 36.9195Z" fill="#191415" fill-opacity="0.8"/>
</g>
<defs>
<clipPath id="clip0_3172_2053">
<rect width="80" height="80" fill="white"/>
</clipPath>
</defs>
</svg>
