<svg width="80" height="80" viewBox="0 0 80 80" fill="none" xmlns="http://www.w3.org/2000/svg">
<g clip-path="url(#clip0_3172_2425)">
<circle cx="40" cy="40" r="40" fill="#F2F1F0"/>
<path d="M53.5966 63.7315C51.9825 63.3875 50.1051 62.7461 48.0365 61.8371C47.7434 61.7054 47.4418 61.5695 47.136 61.4293C47.017 61.3741 46.9321 61.2594 46.9151 61.1277C46.8939 60.9663 46.8684 60.8007 46.8386 60.635C46.6857 59.6368 46.4988 58.6896 46.278 57.7848C46.1463 57.2624 46.0061 56.7484 45.8574 56.2599C45.781 56.0093 45.7003 55.7715 45.6238 55.5293C45.4624 55.0494 45.2925 54.5864 45.1141 54.1361C44.9272 53.6901 44.7361 53.2526 44.5407 52.8279C44.3028 52.3266 44.0522 51.8509 43.7931 51.3921C43.6529 51.1415 43.5085 50.8994 43.3683 50.6658C43.2027 50.4067 43.0455 50.1476 42.8756 49.897C42.6632 49.5869 42.4509 49.2811 42.23 48.988C42.1705 48.9073 42.111 48.8308 42.0516 48.7501C40.79 47.1105 39.3543 45.73 37.821 44.528C37.5109 44.2816 37.1881 44.048 36.8695 43.8144C36.7038 43.6997 36.5467 43.585 36.3853 43.4788C35.7311 43.0328 35.0685 42.608 34.3931 42.2045C33.8834 41.9029 33.3737 41.6141 32.8597 41.3337C32.0527 40.8962 31.2456 40.4842 30.4301 40.0849C30.3197 40.0255 30.205 39.9703 30.0903 39.915C29.6825 39.7154 29.2663 39.52 28.8585 39.3246C28.6291 39.2142 28.3997 39.108 28.1704 38.9975C28.0769 38.9551 27.9835 38.9126 27.8943 38.8616C27.478 38.6662 27.0575 38.4708 26.637 38.2712C26.1188 38.0248 25.6091 37.7785 25.0994 37.5321C24.6534 37.3155 24.2116 37.0904 23.7698 36.8652C23.6594 36.81 23.5532 36.7505 23.4428 36.6996C23.1709 36.5594 22.9033 36.415 22.6357 36.2663C22.4786 36.1814 22.3214 36.0922 22.16 36.0072C21.8457 35.8288 21.5356 35.6462 21.2298 35.4678C20.771 35.1874 20.325 34.9071 19.8918 34.614C19.8578 34.5842 19.8281 34.5758 19.7941 34.563C19.7813 34.5588 19.7728 34.5588 19.7601 34.5503C19.7346 34.5503 19.7134 34.546 19.6921 34.546C19.6794 34.546 19.6709 34.546 19.6624 34.546C19.6284 34.546 19.5902 34.5503 19.5647 34.563C19.552 34.5673 19.5435 34.5673 19.5307 34.5758C19.4968 34.5927 19.4585 34.614 19.433 34.6437C19.4288 34.6437 19.4203 34.648 19.416 34.6565C19.3948 34.6819 19.3736 34.7117 19.3566 34.7414C19.3523 34.7542 19.3438 34.7626 19.3396 34.7711C19.3226 34.8136 19.3056 34.8518 19.3056 34.9028C19.2844 35.3318 19.2674 35.7693 19.2504 36.2026C19.2504 36.3385 19.2504 36.4787 19.2461 36.6231C19.2419 36.9204 19.2334 37.2135 19.2334 37.5066C19.2334 37.6723 19.2376 37.8507 19.2376 38.0163C19.2419 38.2839 19.2419 38.5515 19.2504 38.8191C19.2546 38.9933 19.2674 39.1717 19.2716 39.3458C19.2844 39.605 19.2886 39.8641 19.3056 40.1232C19.3184 40.3143 19.3311 40.5055 19.3438 40.7008C19.3608 40.943 19.3736 41.1851 19.3948 41.4272C19.4118 41.6226 19.433 41.818 19.4543 42.0176C19.4755 42.2555 19.4968 42.4976 19.5265 42.7312C19.5477 42.9266 19.5775 43.122 19.5987 43.3216C19.6327 43.5553 19.6582 43.7889 19.6921 44.0267C19.7261 44.2221 19.7559 44.4175 19.7898 44.6129C19.8238 44.8423 19.862 45.0759 19.9003 45.3053C19.9385 45.5007 19.981 45.6961 20.0192 45.8915C20.0659 46.1166 20.0999 46.346 20.1509 46.5626C20.1934 46.7622 20.2443 46.9576 20.2868 47.1573C20.342 47.3739 20.3845 47.5948 20.4397 47.8114C20.4949 48.0068 20.5459 48.1979 20.6054 48.3933C20.6606 48.6057 20.7116 48.8181 20.7795 49.0305C20.8347 49.2216 20.8985 49.4127 20.9579 49.6039C21.0216 49.812 21.0896 50.0244 21.1533 50.2325C21.217 50.4194 21.2892 50.6021 21.3572 50.789C21.4337 50.9971 21.5059 51.201 21.5781 51.4049C21.6503 51.5833 21.731 51.7702 21.8075 51.9486C21.8839 52.144 21.9646 52.3479 22.0538 52.539C22.1303 52.7259 22.2195 52.9001 22.3044 53.0785C22.3936 53.2654 22.4786 53.4607 22.572 53.6434C22.6612 53.8175 22.7504 53.9875 22.8439 54.1616C22.9416 54.3443 23.035 54.5312 23.137 54.7096C23.2347 54.8795 23.3323 55.0409 23.4385 55.2065C23.5405 55.3807 23.6467 55.5591 23.7529 55.7332C23.8548 55.8904 23.9695 56.0476 24.0799 56.209C24.1946 56.3789 24.305 56.553 24.424 56.7144C24.5387 56.8674 24.6576 57.0203 24.7723 57.1732C24.8997 57.3346 25.0144 57.496 25.1418 57.6489C25.2608 57.7976 25.3924 57.9378 25.5199 58.0864C25.6515 58.2351 25.779 58.3923 25.9149 58.5324C26.0466 58.6726 26.1825 58.8043 26.3184 58.9402C26.4543 59.0804 26.5945 59.229 26.7432 59.365C26.8791 59.4966 27.0278 59.6156 27.1679 59.7388C27.3209 59.8747 27.4695 60.0064 27.6267 60.1338C27.7753 60.2527 27.9283 60.3674 28.0812 60.4821C28.2468 60.6053 28.404 60.7285 28.5654 60.8474C28.7226 60.9536 28.8882 61.0598 29.0496 61.1702C29.2195 61.2806 29.3809 61.3911 29.5593 61.4973C29.725 61.5992 29.8992 61.6927 30.0733 61.7861C30.2517 61.8881 30.4259 61.99 30.6128 62.0835C30.7869 62.1769 30.9738 62.2576 31.1522 62.3426C31.3433 62.4318 31.5302 62.5167 31.7256 62.5974C31.9125 62.6739 32.1079 62.7461 32.2948 62.8225C32.4987 62.899 32.6941 62.9755 32.8937 63.0392C33.0976 63.1114 33.2972 63.1623 33.5011 63.2218C33.7093 63.2855 33.9216 63.3535 34.134 63.4087C34.3422 63.4639 34.5545 63.5064 34.7669 63.5574C34.992 63.6084 35.2087 63.6551 35.4338 63.6976C35.6504 63.7358 35.8755 63.7698 36.0964 63.7995C36.3258 63.8377 36.5552 63.876 36.793 63.9014C37.0224 63.9269 37.256 63.9439 37.4854 63.9652C37.7318 63.9864 37.9696 64.0076 38.216 64.0204C38.4538 64.0331 38.7002 64.0374 38.9466 64.0416C39.2609 64.0544 39.5752 64.0671 39.9023 64.0586C38.8489 63.1708 37.77 62.2534 36.6996 61.3061C35.5655 60.3079 34.4441 59.2758 33.3652 58.1926C33.0296 57.9845 32.6941 57.7679 32.3755 57.5385C32.6983 57.7679 33.0296 57.9845 33.3652 58.1926C30.5278 55.3637 27.9877 52.2289 26.3991 48.6354C26.3779 48.5845 26.3736 48.542 26.3651 48.5038C26.3651 48.491 26.3651 48.4825 26.3651 48.4698C26.3651 48.4655 26.3651 48.4655 26.3651 48.4655C26.3651 48.4358 26.3694 48.4061 26.3779 48.3763C26.3821 48.3636 26.3821 48.3551 26.3821 48.3423C26.3991 48.3084 26.4161 48.2786 26.4374 48.2446C26.4416 48.2404 26.4501 48.2319 26.4543 48.2277C26.4713 48.2064 26.4968 48.1852 26.5181 48.1682C26.5308 48.1554 26.535 48.1512 26.5435 48.147C26.569 48.13 26.5988 48.1172 26.6285 48.1087C26.6327 48.1045 26.6412 48.1045 26.6455 48.1045C26.6795 48.0917 26.705 48.0875 26.7389 48.0875C26.7432 48.0875 26.7517 48.096 26.7559 48.096C26.7857 48.096 26.8111 48.1002 26.8451 48.113C26.8579 48.1215 26.8706 48.1215 26.8876 48.1257C26.9301 48.147 26.9726 48.1767 27.0108 48.2192C31.4793 53.1167 36.6741 57.5895 41.9751 60.9281C42.3277 61.1447 42.676 61.3656 43.0328 61.5737C43.4873 61.8456 43.9418 62.1089 44.3963 62.3595C44.5067 62.4275 44.6214 62.4912 44.7361 62.5507C45.301 62.8608 45.8702 63.1624 46.4309 63.4384C46.7155 63.5786 46.9958 63.7188 47.2804 63.8505C48.4145 64.3857 49.5359 64.8529 50.6445 65.2522C51.477 65.5495 52.3053 65.8129 53.1294 66.0295C53.1718 66.0422 53.2186 66.0423 53.261 66.0338C53.278 66.0338 53.295 66.0295 53.3078 66.0295C53.3417 66.0168 53.3672 66.0083 53.3885 65.9955C53.4054 65.9828 53.4224 65.9785 53.4394 65.97C53.4607 65.953 53.4819 65.9276 53.5031 65.9063C53.5159 65.8978 53.5244 65.8851 53.5286 65.8723C53.5584 65.8299 53.5796 65.7831 53.5881 65.7364L53.8642 64.3305C53.9279 63.9821 53.8047 63.791 53.6051 63.7485L53.5966 63.7315Z" fill="#191415" fill-opacity="0.8"/>
<path d="M43.5554 13.9747C43.5554 13.9747 33.4291 26.8833 28.71 37.2985C36.9843 41.2148 46.2399 45.7428 48.4784 60.0786C48.8182 59.9936 49.1495 59.9002 49.4681 59.794C49.9948 59.6241 50.513 59.4329 51.0142 59.2205C51.5154 59.0124 51.9996 58.7788 52.4754 58.5282C52.7132 58.4007 52.9426 58.2733 53.172 58.1374C53.6307 57.8655 54.0767 57.5767 54.5015 57.2709C54.7139 57.118 54.922 56.9608 55.1216 56.7994C55.5294 56.4766 55.9244 56.1325 56.294 55.78C56.6635 55.4189 57.0118 55.0494 57.3431 54.6628C57.6702 54.2763 57.9803 53.8728 58.2691 53.4565C58.5579 53.0445 58.8171 52.6197 59.0634 52.1822C59.3013 51.7404 59.5222 51.2902 59.7175 50.8315C60.3929 49.2131 60.7582 47.4716 60.7582 45.6578C60.7582 35.901 43.5511 13.9705 43.5511 13.9705L43.5554 13.9747Z" fill="#191415" fill-opacity="0.8"/>
</g>
<defs>
<clipPath id="clip0_3172_2425">
<rect width="80" height="80" fill="white"/>
</clipPath>
</defs>
</svg>
