<svg width="80" height="80" viewBox="0 0 80 80" fill="none" xmlns="http://www.w3.org/2000/svg">
<g clip-path="url(#clip0_3172_2451)">
<circle cx="40" cy="40" r="40" fill="#F2F1F0"/>
<path d="M25.6401 20.4751H54.4521H54.492L54.0997 21.5365C54.0446 21.6852 53.9716 21.8242 53.8821 21.9536H25.6401C24.8169 21.9536 24.0694 22.2909 23.5256 22.8333H23.5228C22.9818 23.3743 22.6445 24.1232 22.6445 24.9478V43.5187L22.3802 43.918C21.9769 44.5237 21.5708 45.1294 21.166 45.7338V24.9478C21.166 23.7198 21.6699 22.6006 22.4807 21.7898L22.4793 21.7884C23.2902 20.979 24.408 20.4751 25.6388 20.4751H25.6401ZM58.9248 39.9078V53.7582C58.9248 54.9889 58.4223 56.1068 57.6115 56.9176L57.6101 56.9163C56.7979 57.7271 55.6801 58.2309 54.4521 58.2309H33.476L34.4769 56.7524H54.4521C55.2767 56.7524 56.0256 56.4165 56.5666 55.8755V55.8728C57.109 55.3304 57.4463 54.5801 57.4463 53.7582V36.97L57.4697 36.9783C57.5757 37.0182 57.6721 37.0802 57.7478 37.1559C57.8249 37.233 57.8854 37.3266 57.9254 37.4299H57.9226L58.688 39.5003C58.7459 39.6573 58.8271 39.7922 58.9234 39.9078H58.9248Z" fill="#191415" fill-opacity="0.8"/>
<path d="M18.304 65.0659C15.5369 63.2198 14.8045 60.0948 14.8623 57.175C14.905 54.9255 14.7619 46.9919 14.7192 46.0214C14.6861 45.3675 14.8045 44.8568 15.1542 44.4672C15.475 44.1065 15.8645 43.8972 16.2789 43.8669C16.7786 43.8312 17.3472 43.9482 17.7299 44.3102C18.0823 44.642 18.4361 45.4556 18.5297 46.2169C18.6151 46.9493 18.6509 49.441 18.6509 49.441L18.6536 50.2794C18.6578 50.6373 19.1258 50.7722 19.3172 50.4652L19.3888 50.3509C19.4383 50.3262 19.4824 50.2904 19.5168 50.2367C20.6691 48.5145 22.6556 45.5547 23.326 44.5484C25.0289 41.9906 26.7649 39.3392 27.1751 38.7307C27.4367 38.3535 27.7822 38.1635 28.1897 38.1112C28.6013 38.0603 28.9496 38.1002 29.3323 38.3452C29.6971 38.5806 29.8816 38.8642 29.9849 39.2304C30.106 39.6131 30.0785 39.9408 29.8417 40.3097C29.4741 40.8879 28.0273 42.99 26.685 45.0426C25.6567 46.5858 24.6861 48.0643 24.2855 48.6783C24.1754 48.8421 24.2222 49.0638 24.386 49.1712L24.5925 49.3061L24.7825 49.4355C24.9546 49.5497 25.1831 49.5029 25.2974 49.3308C26.2404 47.9019 30.1569 41.9617 30.8494 41.0049C31.2073 40.5121 31.4317 40.2725 31.8241 40.1018C32.2068 39.938 32.628 39.9229 33.1057 40.2409C33.5944 40.5685 33.7349 41.0077 33.7445 41.4151C33.7514 41.7978 33.5807 42.1503 33.2916 42.5825L27.7217 50.9374C27.6101 51.1012 27.657 51.3256 27.8221 51.4344L28.0259 51.5693L28.2255 51.7056C28.3935 51.8171 28.6151 51.7703 28.7252 51.6064L34.2952 43.2516C34.4204 43.0616 34.7522 42.7367 35.117 42.6252C35.4984 42.511 35.8948 42.5715 36.2734 42.8248C36.6726 43.0891 36.8723 43.4347 36.9122 43.7857C36.9562 44.1354 36.802 44.4961 36.6203 44.7742C36.3354 45.2202 34.9284 47.3127 33.5353 49.4038C32.5275 50.8823 31.4359 52.515 30.9995 53.1703C30.8893 53.3355 30.932 53.5558 31.1 53.6673L31.3009 53.8022L31.5074 53.9385C31.6713 54.0486 31.8902 54.0059 32.0003 53.8407C32.4257 53.2157 33.4678 51.6808 34.5526 50.0811C34.8169 49.6846 34.8885 49.5814 35.1418 49.1987C35.8783 48.0946 36.5749 47.0855 36.8172 46.7249C37.0705 46.3422 37.8593 45.903 38.6055 46.3958C39.1272 46.74 39.3557 47.4572 38.845 48.2502C38.7734 48.3562 38.7197 48.4415 38.666 48.5172C38.6564 48.5324 38.6454 48.542 38.6371 48.5558C37.2233 50.6483 29.0006 62.8206 28.5793 63.3878C26.1949 66.5898 21.8461 67.42 18.3026 65.059L18.304 65.0659Z" fill="#191415" fill-opacity="0.8"/>
<path d="M49.9025 25.9403L53.3152 27.2041C54.1068 27.4945 54.7318 28.1195 55.0236 28.9111L56.2874 32.3238C56.4732 32.8318 57.1932 32.8318 57.3804 32.3238L58.6442 28.9111C58.9374 28.1195 59.5597 27.4945 60.354 27.2041L63.764 25.9403C64.272 25.7503 64.272 25.0331 63.764 24.8473L60.354 23.5835C59.5597 23.2903 58.9374 22.668 58.6442 21.8765L57.3804 18.4638C57.1932 17.9558 56.4732 17.9558 56.2874 18.4638L55.0236 21.8765C54.7318 22.668 54.1068 23.2903 53.3152 23.5835L49.9025 24.8473C49.3945 25.0345 49.3945 25.7503 49.9025 25.9403Z" fill="#191415" fill-opacity="0.8"/>
<path d="M62.0774 36.0559L64.1465 35.2891C64.4521 35.1776 64.4521 34.7412 64.1465 34.6256L62.0774 33.8615C61.5969 33.6839 61.2197 33.3054 61.0408 32.8235L60.2753 30.7558C60.1597 30.4474 59.7274 30.4474 59.6145 30.7558L58.8491 32.8235C58.6702 33.3054 58.293 33.6839 57.8097 33.8615L55.742 34.6256C55.4336 34.7398 55.4336 35.1762 55.742 35.2891L57.8097 36.0559C58.293 36.2335 58.6702 36.6121 58.8491 37.0911L59.6145 39.1616C59.7274 39.4672 60.1611 39.4672 60.2753 39.1616L61.0408 37.0911C61.2197 36.6121 61.5969 36.2335 62.0774 36.0559Z" fill="#191415" fill-opacity="0.8"/>
</g>
<defs>
<clipPath id="clip0_3172_2451">
<rect width="80" height="80" fill="white"/>
</clipPath>
</defs>
</svg>
