<svg width="64" height="64" viewBox="0 0 64 64" fill="none" xmlns="http://www.w3.org/2000/svg">
<path d="M15.9999 49.3334C16.7363 49.3334 17.3332 49.9304 17.3333 50.6667C17.3333 51.4031 16.7363 52.0001 15.9999 52.0001C15.2635 52.0001 14.6666 51.4031 14.6666 50.6667C14.6666 49.9304 15.2635 49.3334 15.9999 49.3334Z" fill="#191415" fill-opacity="0.4"/>
<path d="M23.9999 49.3334C24.7363 49.3334 25.3332 49.9304 25.3333 50.6667C25.3333 51.4031 24.7363 52.0001 23.9999 52.0001C23.2635 52.0001 22.6666 51.4031 22.6666 50.6667C22.6666 49.9304 23.2635 49.3334 23.9999 49.3334Z" fill="#191415" fill-opacity="0.4"/>
<path d="M31.9999 49.3334C32.7363 49.3334 33.3332 49.9304 33.3333 50.6667C33.3333 51.4031 32.7363 52.0001 31.9999 52.0001C31.2635 52.0001 30.6666 51.4031 30.6666 50.6667C30.6666 49.9304 31.2635 49.3334 31.9999 49.3334Z" fill="#191415" fill-opacity="0.4"/>
<path d="M39.9999 49.3334C40.7363 49.3334 41.3332 49.9304 41.3332 50.6667C41.3332 51.4031 40.7363 52.0001 39.9999 52.0001C39.2635 52.0001 38.6666 51.4031 38.6666 50.6667C38.6666 49.9304 39.2635 49.3334 39.9999 49.3334Z" fill="#191415" fill-opacity="0.4"/>
<path d="M47.9999 49.3334C48.7363 49.3334 49.3332 49.9304 49.3332 50.6667C49.3332 51.4031 48.7363 52.0001 47.9999 52.0001C47.2635 52.0001 46.6666 51.4031 46.6666 50.6667C46.6666 49.9304 47.2635 49.3334 47.9999 49.3334Z" fill="#191415" fill-opacity="0.4"/>
<path d="M42.6666 21.3334C43.403 21.3334 43.9999 21.9304 43.9999 22.6667C43.9999 25.8493 42.736 28.902 40.4856 31.1524C38.3758 33.2622 35.5609 34.5053 32.595 34.6524L31.9999 34.6667C28.8173 34.6667 25.7647 33.4029 23.5142 31.1524C21.2638 28.902 19.9999 25.8493 19.9999 22.6667C19.9999 21.9304 20.5969 21.3334 21.3333 21.3334C22.0696 21.3334 22.6666 21.9304 22.6666 22.6667C22.6666 25.1421 23.6493 27.5167 25.3997 29.267C27.15 31.0173 29.5246 32.0001 31.9999 32.0001L32.4622 31.9884C34.7692 31.8741 36.9591 30.9081 38.6002 29.267C40.3505 27.5167 41.3332 25.1421 41.3332 22.6667C41.3332 21.9304 41.9302 21.3334 42.6666 21.3334Z" fill="#191415" fill-opacity="0.4"/>
<path fill-rule="evenodd" clip-rule="evenodd" d="M57.9908 13.5079C58.3039 13.6859 58.536 13.9867 58.6249 14.3451L58.6666 14.3998V55.4662C58.6666 57.0221 58.0421 58.5145 56.9309 59.6147C55.8196 60.7148 54.3124 61.3334 52.7408 61.3334H11.259C9.7857 61.3334 8.36948 60.7896 7.28247 59.8152L7.06893 59.6147C5.95774 58.5145 5.33325 57.0221 5.33325 55.4662V14.3998L5.37362 14.3451C5.46242 13.987 5.69503 13.6861 6.00773 13.5079L14.2226 2.66675H49.7773L57.9908 13.5079ZM7.99992 55.4662C7.99992 56.3062 8.33692 57.1179 8.94523 57.7201C9.5544 58.3231 10.3861 58.6667 11.259 58.6667H52.7408C53.6137 58.6667 54.4454 58.3231 55.0546 57.7201C55.6629 57.1179 55.9999 56.3062 55.9999 55.4662V16.0001H7.99992V55.4662ZM9.4856 13.3334H54.5142L48.4517 5.33341H15.5481L9.4856 13.3334Z" fill="#191415" fill-opacity="0.4"/>
</svg>
