<svg width="64" height="64" viewBox="0 0 64 64" fill="none" xmlns="http://www.w3.org/2000/svg">
<path fill-rule="evenodd" clip-rule="evenodd" d="M46.6667 5.33329H17.3333V58.6666H46.6667V5.33329ZM17.3333 2.66663C15.8606 2.66663 14.6667 3.86053 14.6667 5.33329V58.6666C14.6667 60.1394 15.8606 61.3333 17.3333 61.3333H46.6667C48.1394 61.3333 49.3333 60.1394 49.3333 58.6666V5.33329C49.3333 3.86053 48.1394 2.66663 46.6667 2.66663H17.3333Z" fill="#191415" fill-opacity="0.4"/>
<path fill-rule="evenodd" clip-rule="evenodd" d="M52 9.33329C52 8.59691 52.597 7.99996 53.3333 7.99996H56C58.2091 7.99996 60 9.79082 60 12V52C60 54.2091 58.2091 56 56 56H53.3333C52.597 56 52 55.403 52 54.6666C52 53.9302 52.597 53.3333 53.3333 53.3333H56C56.7364 53.3333 57.3333 52.7363 57.3333 52V12C57.3333 11.2636 56.7364 10.6666 56 10.6666H53.3333C52.597 10.6666 52 10.0697 52 9.33329Z" fill="#191415" fill-opacity="0.4"/>
<path fill-rule="evenodd" clip-rule="evenodd" d="M12 9.33329C12 8.59691 11.403 7.99996 10.6667 7.99996H8C5.79086 7.99996 4 9.79082 4 12V52C4 54.2091 5.79086 56 8 56H10.6667C11.403 56 12 55.403 12 54.6666C12 53.9302 11.403 53.3333 10.6667 53.3333H8C7.26362 53.3333 6.66667 52.7363 6.66667 52V12C6.66667 11.2636 7.26362 10.6666 8 10.6666H10.6667C11.403 10.6666 12 10.0697 12 9.33329Z" fill="#191415" fill-opacity="0.4"/>
<path d="M24 17.3333C23.2636 17.3333 22.6667 16.7363 22.6667 16C22.6667 15.2636 23.2636 14.6666 24 14.6666C24.7364 14.6666 25.3333 15.2636 25.3333 16C25.3333 16.7363 24.7364 17.3333 24 17.3333Z" fill="#191415" fill-opacity="0.4"/>
<path d="M30.6667 16C30.6667 16.7363 31.2636 17.3333 32 17.3333C32.7364 17.3333 33.3333 16.7363 33.3333 16C33.3333 15.2636 32.7364 14.6666 32 14.6666C31.2636 14.6666 30.6667 15.2636 30.6667 16Z" fill="#191415" fill-opacity="0.4"/>
<path d="M40 17.3333C39.2636 17.3333 38.6667 16.7363 38.6667 16C38.6667 15.2636 39.2636 14.6666 40 14.6666C40.7364 14.6666 41.3333 15.2636 41.3333 16C41.3333 16.7363 40.7364 17.3333 40 17.3333Z" fill="#191415" fill-opacity="0.4"/>
<path d="M24 25.3333C23.2636 25.3333 22.6667 24.7363 22.6667 24C22.6667 23.2636 23.2636 22.6666 24 22.6666C24.7364 22.6666 25.3333 23.2636 25.3333 24C25.3333 24.7363 24.7364 25.3333 24 25.3333Z" fill="#191415" fill-opacity="0.4"/>
<path d="M30.6667 24C30.6667 24.7363 31.2636 25.3333 32 25.3333C32.7364 25.3333 33.3333 24.7363 33.3333 24C33.3333 23.2636 32.7364 22.6666 32 22.6666C31.2636 22.6666 30.6667 23.2636 30.6667 24Z" fill="#191415" fill-opacity="0.4"/>
<path d="M40 25.3333C39.2636 25.3333 38.6667 24.7363 38.6667 24C38.6667 23.2636 39.2636 22.6666 40 22.6666C40.7364 22.6666 41.3333 23.2636 41.3333 24C41.3333 24.7363 40.7364 25.3333 40 25.3333Z" fill="#191415" fill-opacity="0.4"/>
<path d="M24 33.3333C23.2636 33.3333 22.6667 32.7363 22.6667 32C22.6667 31.2636 23.2636 30.6666 24 30.6666C24.7364 30.6666 25.3333 31.2636 25.3333 32C25.3333 32.7363 24.7364 33.3333 24 33.3333Z" fill="#191415" fill-opacity="0.4"/>
<path d="M30.6667 32C30.6667 32.7363 31.2636 33.3333 32 33.3333C32.7364 33.3333 33.3333 32.7363 33.3333 32C33.3333 31.2636 32.7364 30.6666 32 30.6666C31.2636 30.6666 30.6667 31.2636 30.6667 32Z" fill="#191415" fill-opacity="0.4"/>
<path d="M40 33.3333C39.2636 33.3333 38.6667 32.7363 38.6667 32C38.6667 31.2636 39.2636 30.6666 40 30.6666C40.7364 30.6666 41.3333 31.2636 41.3333 32C41.3333 32.7363 40.7364 33.3333 40 33.3333Z" fill="#191415" fill-opacity="0.4"/>
<path d="M24 41.3333C23.2636 41.3333 22.6667 40.7363 22.6667 40C22.6667 39.2636 23.2636 38.6666 24 38.6666C24.7364 38.6666 25.3333 39.2636 25.3333 40C25.3333 40.7363 24.7364 41.3333 24 41.3333Z" fill="#191415" fill-opacity="0.4"/>
<path d="M30.6667 40C30.6667 40.7363 31.2636 41.3333 32 41.3333C32.7364 41.3333 33.3333 40.7363 33.3333 40C33.3333 39.2636 32.7364 38.6666 32 38.6666C31.2636 38.6666 30.6667 39.2636 30.6667 40Z" fill="#191415" fill-opacity="0.4"/>
<path d="M40 41.3333C39.2636 41.3333 38.6667 40.7363 38.6667 40C38.6667 39.2636 39.2636 38.6666 40 38.6666C40.7364 38.6666 41.3333 39.2636 41.3333 40C41.3333 40.7363 40.7364 41.3333 40 41.3333Z" fill="#191415" fill-opacity="0.4"/>
<path d="M24 49.3333C23.2636 49.3333 22.6667 48.7363 22.6667 48C22.6667 47.2636 23.2636 46.6666 24 46.6666C24.7364 46.6666 25.3333 47.2636 25.3333 48C25.3333 48.7363 24.7364 49.3333 24 49.3333Z" fill="#191415" fill-opacity="0.4"/>
<path d="M30.6667 48C30.6667 48.7363 31.2636 49.3333 32 49.3333C32.7364 49.3333 33.3333 48.7363 33.3333 48C33.3333 47.2636 32.7364 46.6666 32 46.6666C31.2636 46.6666 30.6667 47.2636 30.6667 48Z" fill="#191415" fill-opacity="0.4"/>
<path d="M40 49.3333C39.2636 49.3333 38.6667 48.7363 38.6667 48C38.6667 47.2636 39.2636 46.6666 40 46.6666C40.7364 46.6666 41.3333 47.2636 41.3333 48C41.3333 48.7363 40.7364 49.3333 40 49.3333Z" fill="#191415" fill-opacity="0.4"/>
</svg>
