<svg width="64" height="64" viewBox="0 0 64 64" fill="none" xmlns="http://www.w3.org/2000/svg">
<path d="M57.3333 18.2095C57.3333 17.7323 57.0777 17.2911 56.6641 17.0533L32.6641 3.25379C32.2527 3.01738 31.7473 3.01738 31.3359 3.25379L7.33594 17.0533C6.92225 17.2911 6.66667 17.7323 6.66667 18.2095V45.7902C6.66667 46.2674 6.92225 46.7086 7.33594 46.9465L31.3359 60.746C31.7473 60.9824 32.2527 60.9824 32.6641 60.746L56.6641 46.9465C57.0777 46.7086 57.3333 46.2674 57.3333 45.7902V18.2095ZM40.931 31.9999C40.931 27.0958 36.9374 23.1106 32 23.1106C27.0626 23.1106 23.069 27.0958 23.069 31.9999C23.069 36.904 27.0626 40.8892 32 40.8892C36.9374 40.8892 40.931 36.904 40.931 31.9999ZM43.5977 31.9999C43.5977 38.387 38.3999 43.5559 32 43.5559C25.6001 43.5559 20.4023 38.387 20.4023 31.9999C20.4023 25.6128 25.6001 20.4439 32 20.4439C38.3999 20.4439 43.5977 25.6128 43.5977 31.9999ZM60 45.7902C60 47.2218 59.2345 48.5441 57.9935 49.2577L33.9935 63.0585C32.7592 63.768 31.2408 63.768 30.0065 63.0585L6.00651 49.2577C4.76546 48.5441 4 47.2218 4 45.7902V18.2095C4 16.7779 4.76546 15.4557 6.00651 14.7421L30.0065 0.941291C31.2408 0.231808 32.7592 0.231811 33.9935 0.941291L57.9935 14.7421C59.2345 15.4557 60 16.7779 60 18.2095V45.7902Z" fill="#191415" fill-opacity="0.4"/>
<path d="M14.6667 38.6666C15.403 38.6666 16 39.2635 16 39.9999C16 40.7363 15.403 41.3332 14.6667 41.3332C13.9303 41.3332 13.3333 40.7363 13.3333 39.9999C13.3333 39.2635 13.9303 38.6666 14.6667 38.6666Z" fill="#191415" fill-opacity="0.4"/>
<path d="M49.3333 38.6666C50.0697 38.6666 50.6667 39.2635 50.6667 39.9999C50.6667 40.7363 50.0697 41.3332 49.3333 41.3332C48.597 41.3332 48 40.7363 48 39.9999C48 39.2635 48.597 38.6666 49.3333 38.6666Z" fill="#191415" fill-opacity="0.4"/>
<path d="M14.6667 30.6666C15.403 30.6666 16 31.2635 16 31.9999C16 32.7363 15.403 33.3332 14.6667 33.3332C13.9303 33.3332 13.3333 32.7363 13.3333 31.9999C13.3333 31.2635 13.9303 30.6666 14.6667 30.6666Z" fill="#191415" fill-opacity="0.4"/>
<path d="M49.3333 30.6666C50.0697 30.6666 50.6667 31.2635 50.6667 31.9999C50.6667 32.7363 50.0697 33.3332 49.3333 33.3332C48.597 33.3332 48 32.7363 48 31.9999C48 31.2635 48.597 30.6666 49.3333 30.6666Z" fill="#191415" fill-opacity="0.4"/>
<path d="M14.6667 22.6666C15.403 22.6666 16 23.2635 16 23.9999C16 24.7363 15.403 25.3332 14.6667 25.3332C13.9303 25.3332 13.3333 24.7363 13.3333 23.9999C13.3333 23.2635 13.9303 22.6666 14.6667 22.6666Z" fill="#191415" fill-opacity="0.4"/>
<path d="M49.3333 22.6666C50.0697 22.6666 50.6667 23.2635 50.6667 23.9999C50.6667 24.7363 50.0697 25.3332 49.3333 25.3332C48.597 25.3332 48 24.7363 48 23.9999C48 23.2635 48.597 22.6666 49.3333 22.6666Z" fill="#191415" fill-opacity="0.4"/>
</svg>
