<svg width="80" height="80" viewBox="0 0 80 80" fill="none" xmlns="http://www.w3.org/2000/svg">
<g clip-path="url(#clip0_3172_2063)">
<circle cx="40" cy="40" r="40" fill="#F2F1F0"/>
<path d="M53.7099 34.1354C53.9604 34.1354 54.0871 33.8312 53.9109 33.6522L51.466 31.2059L49.021 33.6522C48.8434 33.8326 48.9673 34.1354 49.2206 34.1354H50.6372V60.9499H49.2206C48.9673 60.9499 48.8434 61.2541 49.021 61.4358L51.466 63.8808L53.9109 61.4358C54.0885 61.2555 53.9604 60.9499 53.7099 60.9499H52.2933V34.1354H53.7099Z" fill="#191415" fill-opacity="0.8"/>
<path d="M38.637 35.8383C38.6164 35.8232 38.5944 35.8163 38.5751 35.8094C38.5668 35.8067 38.5586 35.8067 38.5531 35.8067C38.5379 35.8039 38.5269 35.8011 38.5159 35.8011C38.5131 35.8011 38.5104 35.8011 38.5076 35.8011C38.5049 35.8011 38.4994 35.8039 38.4939 35.8039C38.4787 35.8067 38.4663 35.8094 38.4512 35.8122C38.4429 35.8163 38.4374 35.8163 38.4319 35.8177C38.4181 35.8232 38.4071 35.8287 38.3934 35.8383C38.3892 35.8411 38.3851 35.8438 38.3824 35.8466C38.3658 35.8576 38.3507 35.8714 38.3397 35.8865C38.3369 35.8893 38.3342 35.892 38.3314 35.8948C38.3232 35.9085 38.3149 35.9223 38.3094 35.9361C38.3066 35.9416 38.3039 35.9485 38.3011 35.954C38.2942 35.9677 38.2929 35.9815 38.2887 35.9953C38.2887 36.0049 38.2887 36.0104 38.286 36.0159C38.286 36.0379 38.286 36.0586 38.2915 36.0806L38.5145 37.0814C38.2777 37.1186 38.0409 37.1544 37.8042 37.1888C37.7395 37.1971 37.6734 37.2053 37.6101 37.2136C37.4421 37.237 37.2686 37.259 37.0966 37.281C37.0098 37.2907 36.9217 37.2989 36.8322 37.31C36.6849 37.3265 36.5363 37.3444 36.3862 37.3581C36.294 37.3692 36.2004 37.376 36.104 37.3829C35.9636 37.3967 35.819 37.4118 35.6759 37.4228C35.5781 37.4311 35.4762 37.4366 35.3799 37.4449C35.289 37.4504 35.1995 37.4559 35.1059 37.4628C35.0577 37.4683 35.0109 37.471 34.9627 37.4738C34.8609 37.4793 34.7549 37.4848 34.653 37.4903C34.5167 37.4958 34.3846 37.5041 34.2496 37.5096C34.1436 37.5123 34.0363 37.5151 33.9289 37.5178C33.7995 37.5247 33.6687 37.5261 33.5407 37.5302C33.4278 37.533 33.3176 37.533 33.2089 37.5357C33.0822 37.5357 32.9542 37.5385 32.8289 37.5385C32.7023 37.5385 32.5756 37.5357 32.4476 37.5357C32.3388 37.5357 32.2287 37.5357 32.1213 37.533C31.9919 37.5302 31.8625 37.5247 31.7359 37.522C31.6285 37.5178 31.5211 37.5151 31.411 37.511C31.2788 37.5068 31.1439 37.4999 31.0104 37.4944C30.9085 37.4889 30.808 37.4834 30.7061 37.4779C30.6359 37.4752 30.5685 37.4697 30.501 37.4641C30.4267 37.46 30.3565 37.4545 30.2863 37.449C30.1899 37.4435 30.0949 37.438 29.9985 37.4297C29.8554 37.4187 29.7108 37.4049 29.569 37.3898C29.4768 37.3843 29.3846 37.376 29.2909 37.3678C29.1368 37.3513 28.9812 37.3334 28.827 37.3168C28.7485 37.3086 28.6701 37.3003 28.5875 37.2921C28.4154 37.2687 28.2406 37.2466 28.0671 37.2232C28.0079 37.215 27.946 37.2067 27.884 37.1984C27.6513 37.1682 27.4173 37.1337 27.1833 37.0938L27.3499 36.2458C27.3554 36.2197 27.3554 36.2004 27.3526 36.1783C27.3526 36.1715 27.3526 36.1673 27.3499 36.1605C27.3471 36.1439 27.3444 36.1302 27.3388 36.1192C27.3361 36.1109 27.3361 36.1054 27.3333 36.1013C27.3251 36.0847 27.3168 36.071 27.3058 36.0572C27.3031 36.0531 27.3031 36.0531 27.3003 36.0517C27.2879 36.0366 27.2741 36.0228 27.2576 36.0118C27.2521 36.009 27.2466 36.0063 27.2425 36.0035C27.2287 35.9966 27.2177 35.9884 27.2039 35.9856C27.1984 35.9829 27.1929 35.9801 27.186 35.9801C27.1695 35.9746 27.1558 35.9719 27.1379 35.9719C27.1351 35.9719 27.1296 35.9691 27.1268 35.9691H27.1241C27.1103 35.9691 27.0993 35.9719 27.0842 35.9746C27.0759 35.9774 27.0676 35.9774 27.0621 35.9774C27.0401 35.9856 27.0167 35.9939 26.9974 36.009L24.6709 37.5729L26.2348 39.8981C26.2485 39.9187 26.2623 39.9352 26.2802 39.949C26.2857 39.9518 26.2912 39.9545 26.2967 39.96C26.3077 39.9696 26.3215 39.9738 26.3339 39.9807C26.3422 39.982 26.3477 39.9862 26.3559 39.9889C26.3669 39.9917 26.3807 39.9944 26.3931 39.9972C26.4013 39.9972 26.4069 39.9999 26.4151 39.9999C26.4179 39.9999 26.4206 39.9999 26.4234 39.9999C26.4289 39.9999 26.4358 39.9972 26.444 39.9972C26.4578 39.9972 26.4716 39.9931 26.4895 39.9917C26.4977 39.9889 26.506 39.9862 26.5142 39.982C26.528 39.9765 26.539 39.9696 26.5542 39.96C26.5597 39.9545 26.5679 39.9518 26.5734 39.9462C26.5872 39.9352 26.5982 39.9215 26.6078 39.9063C26.6134 39.9008 26.6189 39.8953 26.6216 39.8898C26.6354 39.8678 26.6464 39.8416 26.6533 39.8141L26.8612 38.7431C27.1089 38.7816 27.3567 38.8188 27.6073 38.8532C27.6775 38.8642 27.7477 38.8725 27.8193 38.8821C27.9969 38.9069 28.1745 38.9303 28.3507 38.9523C28.4443 38.9633 28.5407 38.973 28.6329 38.984C28.7871 39.0005 28.9426 39.017 29.0968 39.0335C29.2015 39.0432 29.3088 39.0514 29.4148 39.0624C29.5594 39.0734 29.6998 39.0872 29.843 39.0996C29.9531 39.1079 30.0605 39.1161 30.1692 39.1216C30.2794 39.1299 30.3895 39.1382 30.5024 39.1464C30.5299 39.1464 30.5616 39.1492 30.5933 39.1533C30.702 39.1588 30.8149 39.1643 30.925 39.1698C31.0627 39.1753 31.2031 39.1836 31.3422 39.1891C31.455 39.1918 31.5707 39.196 31.6836 39.2001C31.8185 39.2029 31.9534 39.2084 32.0911 39.2125C32.2067 39.2125 32.3223 39.2125 32.438 39.2139C32.5619 39.2139 32.6858 39.218 32.8097 39.218C32.8207 39.218 32.8303 39.218 32.8413 39.218C32.9735 39.218 33.1056 39.2139 33.2378 39.2139C33.3589 39.2125 33.4773 39.2125 33.5985 39.2084C33.7306 39.2056 33.8656 39.2001 34.0005 39.1973C34.1189 39.1918 34.2373 39.1918 34.3529 39.1863C34.4906 39.1808 34.6255 39.1726 34.7645 39.1643C34.8801 39.1588 34.9958 39.1547 35.1114 39.1464C35.2491 39.1382 35.384 39.1271 35.523 39.1175C35.6387 39.1092 35.7516 39.101 35.8672 39.0927C36.0049 39.0803 36.1453 39.0666 36.2857 39.0528C36.3958 39.0418 36.5087 39.0322 36.6202 39.0211C36.7648 39.0074 36.9107 38.9909 37.0539 38.973C37.1613 38.9619 37.2686 38.9509 37.3719 38.9372C37.5357 38.9179 37.6982 38.8959 37.862 38.8725C37.9487 38.8614 38.0368 38.8491 38.1235 38.838C38.3741 38.8022 38.6246 38.7623 38.8752 38.7224L39.0789 39.6351C39.0844 39.664 39.0955 39.6861 39.1065 39.7095C39.112 39.715 39.1175 39.7205 39.123 39.726C39.1313 39.7411 39.1436 39.7521 39.1547 39.7632C39.1629 39.7687 39.1712 39.7742 39.1767 39.7769C39.1904 39.7838 39.2015 39.7934 39.2166 39.7962C39.2249 39.8031 39.2331 39.8045 39.2414 39.8045C39.2551 39.8113 39.2703 39.8113 39.2841 39.8141C39.2896 39.8141 39.2951 39.8168 39.3047 39.8168C39.3075 39.8168 39.313 39.8141 39.3157 39.8141C39.324 39.8141 39.3322 39.8141 39.3377 39.8113C39.3515 39.8113 39.3625 39.8045 39.3777 39.8031C39.3832 39.8003 39.3887 39.7962 39.3969 39.7934C39.4107 39.7879 39.4217 39.7797 39.4327 39.7714C39.4382 39.7687 39.4438 39.7659 39.4493 39.7604C39.4672 39.7453 39.4809 39.7287 39.4947 39.7095L40.9994 37.3444L38.6357 35.8383H38.637Z" fill="#191415" fill-opacity="0.8"/>
<path d="M31.9729 59.3419C33.7983 58.3562 34.4811 56.0765 33.4913 54.251C32.6502 52.6885 30.8578 51.9658 29.2127 52.4091L24.4935 43.6729L22.9668 44.4961L27.6887 53.2337C26.4181 54.3667 26.0381 56.2596 26.8834 57.8235C27.8691 59.6489 30.1488 60.3276 31.9742 59.3419H31.9729Z" fill="#191415" fill-opacity="0.8"/>
<path fill-rule="evenodd" clip-rule="evenodd" d="M43.7668 14.4135C50.573 14.4135 56.2255 19.6089 56.9537 26.2293H52.302C51.6068 22.153 48.0344 19.0225 43.7682 19.0225C39.0063 19.0225 35.1104 22.9184 35.1104 27.6802V36.4027H30.5V27.6802C30.5 20.3826 36.4692 14.4135 43.7668 14.4135ZM57.0253 27.237C57.0308 27.3843 57.0336 27.5316 57.0336 27.6802V29.726H52.4246V27.6802C52.4246 27.5316 52.4204 27.3829 52.4135 27.237H57.0267H57.0253Z" fill="#191415" fill-opacity="0.8"/>
<path fill-rule="evenodd" clip-rule="evenodd" d="M37.288 64.6117V64.4919V47.1709H35.1129L35.1101 40.2174C34.3433 40.2628 33.5779 40.2876 32.8111 40.2876C32.0416 40.2876 31.2693 40.2628 30.5011 40.2174V47.1709H28.3205V48.5214L29.7852 51.2334C31.6644 51.0751 33.5036 52.0373 34.4259 53.7444C35.6911 56.0861 34.8197 59.0101 32.478 60.2752C31.1426 60.9966 29.6187 61.0227 28.3205 60.479V64.4905V64.6103H27.5V65.5863H38.1071V64.6103H37.2866L37.288 64.6117Z" fill="#191415" fill-opacity="0.8"/>
</g>
<defs>
<clipPath id="clip0_3172_2063">
<rect width="80" height="80" fill="white"/>
</clipPath>
</defs>
</svg>
