<svg width="80" height="80" viewBox="0 0 80 80" fill="none" xmlns="http://www.w3.org/2000/svg">
<g clip-path="url(#clip0_3172_1519)">
<circle cx="40" cy="40" r="40" fill="#F2F1F0"/>
<path fill-rule="evenodd" clip-rule="evenodd" d="M36.0492 48.8884V61.1352C36.0492 64.6966 33.1348 67.611 29.5734 67.611C26.012 67.611 23.0977 64.698 23.0977 61.1352V29.8148L28.2463 49.0316C28.3799 49.5313 28.7061 49.9306 29.1233 50.1715H29.1274C29.5445 50.4124 30.0539 50.495 30.5495 50.3628L36.0492 48.8884Z" fill="#191415" fill-opacity="0.8"/>
<path fill-rule="evenodd" clip-rule="evenodd" d="M41.5829 44.2642L41.8816 45.3779C41.9945 45.7992 41.7412 46.237 41.3199 46.3499L30.2682 49.3111C29.8455 49.4239 29.4091 49.172 29.2962 48.7494L24.332 30.2223C24.4876 30.3723 24.6514 30.5183 24.8221 30.6559L41.5829 44.2628V44.2642Z" fill="#191415" fill-opacity="0.8"/>
<path fill-rule="evenodd" clip-rule="evenodd" d="M49.3142 32.3602L51.6463 34.2545C51.9863 34.5298 52.0373 35.0323 51.7619 35.3709L44.551 44.2545C44.2757 44.5932 43.7732 44.6469 43.4346 44.3716L28.5488 32.2872C28.8957 32.3368 29.2509 32.3616 29.6102 32.3616H49.3129L49.3142 32.3602Z" fill="#191415" fill-opacity="0.8"/>
<path fill-rule="evenodd" clip-rule="evenodd" d="M23.0977 24.7569C23.0977 21.1735 26.0285 18.2426 29.612 18.2426H52.7053C53.1417 18.2426 53.4996 18.5991 53.4996 19.0355V30.4783C53.4996 30.9161 53.1431 31.2713 52.7053 31.2713H29.612C26.0285 31.2713 23.0977 28.3404 23.0977 24.7569Z" fill="#191415" fill-opacity="0.8"/>
<path d="M44.873 49.1417C44.7959 48.77 44.3086 48.6778 44.0993 48.993L42.1514 51.9721L45.1263 53.9187C45.4457 54.128 45.8559 53.8458 45.7788 53.4754L45.5462 52.359C55.1002 49.6841 61.7921 41.0414 61.9889 31.1212L63.1315 31.0634C63.5101 31.0441 63.6767 30.5788 63.3945 30.3242L60.7637 27.9315L58.3711 30.5609C58.1136 30.8432 58.3256 31.2919 58.7042 31.274L59.8496 31.219C59.6101 40.0916 53.6368 47.8064 45.1057 50.2582L44.873 49.1376V49.1417Z" fill="#191415" fill-opacity="0.8"/>
</g>
<defs>
<clipPath id="clip0_3172_1519">
<rect width="80" height="80" fill="white"/>
</clipPath>
</defs>
</svg>
