<svg width="64" height="64" viewBox="0 0 64 64" fill="none" xmlns="http://www.w3.org/2000/svg">
<path d="M24 25.3333C23.2636 25.3333 22.6666 24.7363 22.6666 23.9999C22.6666 23.2635 23.2636 22.6666 24 22.6666C24.7364 22.6666 25.3333 23.2635 25.3333 23.9999C25.3333 24.7363 24.7364 25.3333 24 25.3333Z" fill="#191415" fill-opacity="0.4"/>
<path d="M30.6666 23.9999C30.6666 24.7363 31.2636 25.3333 32 25.3333C32.7364 25.3333 33.3333 24.7363 33.3333 23.9999C33.3333 23.2635 32.7364 22.6666 32 22.6666C31.2636 22.6666 30.6666 23.2635 30.6666 23.9999Z" fill="#191415" fill-opacity="0.4"/>
<path d="M40 25.3333C39.2636 25.3333 38.6666 24.7363 38.6666 23.9999C38.6666 23.2635 39.2636 22.6666 40 22.6666C40.7364 22.6666 41.3333 23.2635 41.3333 23.9999C41.3333 24.7363 40.7364 25.3333 40 25.3333Z" fill="#191415" fill-opacity="0.4"/>
<path d="M24 33.3333C23.2636 33.3333 22.6666 32.7363 22.6666 31.9999C22.6666 31.2635 23.2636 30.6666 24 30.6666C24.7364 30.6666 25.3333 31.2635 25.3333 31.9999C25.3333 32.7363 24.7364 33.3333 24 33.3333Z" fill="#191415" fill-opacity="0.4"/>
<path d="M30.6666 31.9999C30.6666 32.7363 31.2636 33.3333 32 33.3333C32.7364 33.3333 33.3333 32.7363 33.3333 31.9999C33.3333 31.2635 32.7364 30.6666 32 30.6666C31.2636 30.6666 30.6666 31.2635 30.6666 31.9999Z" fill="#191415" fill-opacity="0.4"/>
<path d="M40 33.3333C39.2636 33.3333 38.6666 32.7363 38.6666 31.9999C38.6666 31.2635 39.2636 30.6666 40 30.6666C40.7364 30.6666 41.3333 31.2635 41.3333 31.9999C41.3333 32.7363 40.7364 33.3333 40 33.3333Z" fill="#191415" fill-opacity="0.4"/>
<path d="M24 41.3333C23.2636 41.3333 22.6666 40.7363 22.6666 39.9999C22.6666 39.2635 23.2636 38.6666 24 38.6666C24.7364 38.6666 25.3333 39.2635 25.3333 39.9999C25.3333 40.7363 24.7364 41.3333 24 41.3333Z" fill="#191415" fill-opacity="0.4"/>
<path d="M30.6666 39.9999C30.6666 40.7363 31.2636 41.3333 32 41.3333C32.7364 41.3333 33.3333 40.7363 33.3333 39.9999C33.3333 39.2635 32.7364 38.6666 32 38.6666C31.2636 38.6666 30.6666 39.2635 30.6666 39.9999Z" fill="#191415" fill-opacity="0.4"/>
<path d="M40 41.3333C39.2636 41.3333 38.6666 40.7363 38.6666 39.9999C38.6666 39.2635 39.2636 38.6666 40 38.6666C40.7364 38.6666 41.3333 39.2635 41.3333 39.9999C41.3333 40.7363 40.7364 41.3333 40 41.3333Z" fill="#191415" fill-opacity="0.4"/>
<path fill-rule="evenodd" clip-rule="evenodd" d="M32 3.99992C16.536 3.99992 3.99998 16.5359 3.99998 31.9999C3.99998 47.4639 16.536 59.9999 32 59.9999C47.4639 59.9999 60 47.4639 60 31.9999C60 16.5359 47.4639 3.99992 32 3.99992ZM1.33331 31.9999C1.33331 15.0632 15.0633 1.33325 32 1.33325C48.9367 1.33325 62.6666 15.0632 62.6666 31.9999C62.6666 48.9367 48.9367 62.6666 32 62.6666C15.0632 62.6666 1.33331 48.9367 1.33331 31.9999Z" fill="#191415" fill-opacity="0.4"/>
<path fill-rule="evenodd" clip-rule="evenodd" d="M53.3353 33.3005C54.0661 33.3911 54.5851 34.057 54.4946 34.7877C53.8161 40.2624 51.1644 45.3017 47.0364 48.9612C42.9085 52.6207 37.5876 54.6493 32.0711 54.6666C26.5546 54.6839 21.2211 52.6888 17.0703 49.0553C12.9195 45.4217 10.2362 40.3992 9.52335 34.9289C9.4282 34.1987 9.94301 33.5296 10.6732 33.4344C11.4034 33.3393 12.0725 33.8541 12.1677 34.5843C12.7966 39.411 15.1642 43.8427 18.8267 47.0488C22.4892 50.2548 27.1953 52.0152 32.0628 51.9999C36.9303 51.9846 41.6251 50.1948 45.2675 46.9658C48.9098 43.7368 51.2495 39.2903 51.8482 34.4598C51.9387 33.729 52.6046 33.21 53.3353 33.3005Z" fill="#191415" fill-opacity="0.4"/>
<path fill-rule="evenodd" clip-rule="evenodd" d="M10.5027 30.6993C9.77186 30.6087 9.25287 29.9429 9.34343 29.2121C10.0219 23.7375 12.6736 18.6981 16.8016 15.0386C20.9295 11.3791 26.2504 9.35059 31.7669 9.33328C37.2834 9.31596 42.6169 11.311 46.7677 14.9446C50.9186 18.5781 53.6018 23.6007 54.3147 29.071C54.4098 29.8012 53.895 30.4702 53.1648 30.5654C52.4346 30.6606 51.7655 30.1457 51.6704 29.4155C51.0414 24.5888 48.6738 20.1571 45.0113 16.9511C41.3488 13.745 36.6427 11.9847 31.7752 11.9999C26.9077 12.0152 22.2129 13.8051 18.5706 17.0341C14.9282 20.263 12.5885 24.7095 11.9899 29.5401C11.8993 30.2709 11.2334 30.7899 10.5027 30.6993Z" fill="#191415" fill-opacity="0.4"/>
</svg>
