<svg width="40" height="40" viewBox="0 0 40 40" fill="none" xmlns="http://www.w3.org/2000/svg">
<g clip-path="url(#clip0_868_6294)">
<path d="M40 0H0V40H40V0Z" fill="#005BFF"/>
<path fill-rule="evenodd" clip-rule="evenodd" d="M19.7 20.0597L19.12 17.7797L23 15.1797L27.64 15.4997L28.32 17.7197L49.52 40.5197L16.38 50.5597L19.7 20.0597Z" fill="#F91155"/>
<path fill-rule="evenodd" clip-rule="evenodd" d="M4.26002 26.74C2.76002 27.36 1.08002 26.36 0.840019 24.7C0.680019 23.56 1.30002 22.46 2.32002 22.04C3.82002 21.42 5.50002 22.42 5.74002 24.08C5.90002 25.2 5.28002 26.32 4.26002 26.74ZM2.52002 19.68C-0.379981 20.14 -2.09998 23.22 -1.03998 26.04C-0.259981 28.14 1.90002 29.44 4.06002 29.08C6.96002 28.62 8.68002 25.54 7.62002 22.72C6.82002 20.62 4.66002 19.34 2.52002 19.68Z" fill="white"/>
<path fill-rule="evenodd" clip-rule="evenodd" d="M9.01999 18.0197C8.35999 18.1997 8.01999 18.9397 8.33999 19.5797C8.57999 20.0597 9.13999 20.2797 9.63999 20.1397L12.58 19.3597L9.63999 26.7197C9.53999 26.9597 9.75999 27.2197 10.02 27.1397L17.2 25.2197C17.7 25.0797 18.08 24.6197 18.04 24.0797C18 23.3597 17.32 22.8797 16.66 23.0597L13.08 24.0197L16 16.6797C16.1 16.4397 15.88 16.1797 15.62 16.2397L9.01999 18.0197Z" fill="white"/>
<path fill-rule="evenodd" clip-rule="evenodd" d="M37.7 10.2998C37.24 10.5398 37.02 11.0798 37.16 11.5998L38.12 15.1598L31.14 12.0998C30.9 11.9998 30.64 12.2198 30.7 12.4798L32.68 19.8398C32.82 20.3398 33.28 20.7198 33.8 20.6998C34.52 20.6598 34.98 19.9798 34.82 19.2998L33.86 15.6998L40.84 18.7598C41.08 18.8598 41.34 18.6398 41.28 18.3798L39.28 10.9998C39.1 10.3198 38.34 9.95984 37.7 10.2998Z" fill="white"/>
<path fill-rule="evenodd" clip-rule="evenodd" d="M22.72 14.12C19.22 15.06 16.94 17.88 17.64 20.42C18.32 22.96 21.7 24.26 25.2 23.34C28.7 22.4 30.98 19.58 30.28 17.04C29.6 14.48 26.22 13.18 22.72 14.12ZM23.3 16.26C25.72 15.62 27.86 16.42 28.18 17.58C28.5 18.74 27.04 20.52 24.62 21.16C22.2 21.8 20.06 21 19.74 19.84C19.44 18.7 20.88 16.9 23.3 16.26Z" fill="white"/>
</g>
<defs>
<clipPath id="clip0_868_6294">
<rect width="40" height="40" rx="8" fill="white"/>
</clipPath>
</defs>
</svg>
