<svg width="64" height="64" viewBox="0 0 64 64" fill="none" xmlns="http://www.w3.org/2000/svg">
<path fill-rule="evenodd" clip-rule="evenodd" d="M6.66667 5.33317V17.3876C6.66667 29.9462 9.51674 38.4604 14.0135 44.6846C18.4322 50.8007 24.6297 54.9722 32 58.5361C39.3703 54.9722 45.5679 50.8007 49.9865 44.685C54.4833 38.4612 57.3333 29.9481 57.3333 17.3915V5.33317H6.66667ZM31.3746 61.1938C31.5704 61.2856 31.7839 61.3332 32 61.3332C32.2161 61.3332 32.4296 61.2856 32.6254 61.1938C48.1863 53.7831 60 43.3465 60 17.3915V4.12684C60 3.73954 59.8465 3.36809 59.5734 3.09423C59.3002 2.82036 58.9297 2.6665 58.5434 2.6665H5.45665C5.07032 2.6665 4.69982 2.82036 4.42664 3.09423C4.15347 3.36809 4 3.73954 4 4.12684V17.3876C4 43.3465 15.8137 53.7831 31.3746 61.1938Z" fill="#191415" fill-opacity="0.4"/>
<path fill-rule="evenodd" clip-rule="evenodd" d="M33.1559 20.8549C39.04 26.8381 41.7778 31.5973 41.7778 35.835C41.7778 41.3145 37.3886 45.7776 32 45.7776C26.6114 45.7776 22.2222 41.3145 22.2222 35.835C22.2222 31.5973 24.9643 26.8381 30.8441 20.8549C30.9958 20.7005 31.176 20.5779 31.3743 20.4943C31.5727 20.4107 31.7853 20.3677 32 20.3677C32.2147 20.3677 32.4273 20.4107 32.6257 20.4943C32.824 20.5779 33.0042 20.7005 33.1559 20.8549ZM32 43.1109C35.874 43.1109 39.1111 39.8839 39.1111 35.835C39.1111 32.862 37.242 28.9922 32.0003 23.4945C26.7611 28.9932 24.8889 32.8626 24.8889 35.835C24.8889 39.8839 28.126 43.1109 32 43.1109Z" fill="#191415" fill-opacity="0.4"/>
<path d="M16 14.6665C15.2636 14.6665 14.6667 14.0695 14.6667 13.3332C14.6667 12.5968 15.2636 11.9998 16 11.9998C16.7364 11.9998 17.3333 12.5968 17.3333 13.3332C17.3333 14.0695 16.7364 14.6665 16 14.6665Z" fill="#191415" fill-opacity="0.4"/>
<path d="M22.6667 13.3332C22.6667 14.0695 23.2636 14.6665 24 14.6665C24.7364 14.6665 25.3333 14.0695 25.3333 13.3332C25.3333 12.5968 24.7364 11.9998 24 11.9998C23.2636 11.9998 22.6667 12.5968 22.6667 13.3332Z" fill="#191415" fill-opacity="0.4"/>
<path d="M32 14.6665C31.2636 14.6665 30.6667 14.0695 30.6667 13.3332C30.6667 12.5968 31.2636 11.9998 32 11.9998C32.7364 11.9998 33.3333 12.5968 33.3333 13.3332C33.3333 14.0695 32.7364 14.6665 32 14.6665Z" fill="#191415" fill-opacity="0.4"/>
<path d="M40 14.6665C39.2636 14.6665 38.6667 14.0695 38.6667 13.3332C38.6667 12.5968 39.2636 11.9998 40 11.9998C40.7364 11.9998 41.3333 12.5968 41.3333 13.3332C41.3333 14.0695 40.7364 14.6665 40 14.6665Z" fill="#191415" fill-opacity="0.4"/>
<path d="M48 14.6665C47.2636 14.6665 46.6667 14.0695 46.6667 13.3332C46.6667 12.5968 47.2636 11.9998 48 11.9998C48.7364 11.9998 49.3333 12.5968 49.3333 13.3332C49.3333 14.0695 48.7364 14.6665 48 14.6665Z" fill="#191415" fill-opacity="0.4"/>
</svg>
